<svg width="45" height="45" viewBox="0 0 45 45" fill="none" xmlns="http://www.w3.org/2000/svg">
<path d="M9.84375 29.8828C8.80077 29.8828 7.7812 30.1921 6.91399 30.7715C6.04678 31.351 5.37087 32.1746 4.97173 33.1382C4.5726 34.1018 4.46817 35.1621 4.67164 36.185C4.87512 37.208 5.37737 38.1476 6.11487 38.8851C6.85237 39.6226 7.79201 40.1249 8.81496 40.3283C9.8379 40.5318 10.8982 40.4274 11.8618 40.0283C12.8254 39.6291 13.649 38.9532 14.2285 38.086C14.8079 37.2188 15.1172 36.1992 15.1172 35.1562C15.1156 33.7581 14.5595 32.4177 13.5709 31.4291C12.5823 30.4405 11.2419 29.8844 9.84375 29.8828ZM9.84375 37.9687C9.28749 37.9687 8.74372 37.8038 8.28121 37.4948C7.8187 37.1857 7.45821 36.7465 7.24534 36.2325C7.03247 35.7186 6.97677 35.1531 7.08529 34.6076C7.19381 34.062 7.46168 33.5608 7.85501 33.1675C8.24835 32.7742 8.74949 32.5063 9.29506 32.3978C9.84063 32.2893 10.4061 32.345 10.9201 32.5578C11.434 32.7707 11.8732 33.1312 12.1823 33.5937C12.4913 34.0562 12.6563 34.6 12.6563 35.1562C12.6563 35.9022 12.3599 36.6175 11.8325 37.145C11.305 37.6724 10.5897 37.9687 9.84375 37.9687Z" fill="#2F9AAA"/>
<path d="M36.5625 29.8828C35.5195 29.8828 34.4999 30.1921 33.6327 30.7715C32.7655 31.351 32.0896 32.1746 31.6905 33.1382C31.2913 34.1018 31.1869 35.1621 31.3904 36.185C31.5939 37.208 32.0961 38.1476 32.8336 38.8851C33.5711 39.6226 34.5108 40.1249 35.5337 40.3283C36.5566 40.5318 37.617 40.4274 38.5806 40.0283C39.5441 39.6291 40.3677 38.9532 40.9472 38.086C41.5266 37.2188 41.8359 36.1992 41.8359 35.1562C41.8343 33.7581 41.2782 32.4177 40.2896 31.4291C39.301 30.4405 37.9606 29.8844 36.5625 29.8828ZM36.5625 37.9687C36.0062 37.9687 35.4625 37.8038 35 37.4948C34.5374 37.1857 34.177 36.7465 33.9641 36.2325C33.7512 35.7186 33.6955 35.1531 33.804 34.6076C33.9126 34.062 34.1804 33.5608 34.5738 33.1675C34.9671 32.7742 35.4682 32.5063 36.0138 32.3978C36.5594 32.2893 37.1249 32.345 37.6388 32.5578C38.1527 32.7707 38.592 33.1312 38.901 33.5937C39.21 34.0562 39.375 34.6 39.375 35.1562C39.375 35.9022 39.0787 36.6175 38.5512 37.145C38.0238 37.6724 37.3084 37.9687 36.5625 37.9687Z" fill="#2F9AAA"/>
<path d="M43.9966 26.4211C40.5065 24.9813 35.1562 22.5 35.1562 22.5L30.895 15.583C30.599 15.2172 30.2247 14.9223 29.7998 14.72C29.3749 14.5177 28.91 14.4132 28.4394 14.4141H7.36321C6.64452 14.4117 5.93953 14.6106 5.32817 14.9885C4.71681 15.3663 4.22353 15.9079 3.90428 16.5518L0.759815 22.8409C0.491325 23.3778 0.35155 23.9699 0.351563 24.5702V33.0469C0.351563 33.8861 0.684918 34.6909 1.27829 35.2842C1.87167 35.8776 2.67646 36.211 3.51562 36.211H3.60519C3.45082 35.3032 3.49641 34.3727 3.7388 33.4843C3.98118 32.596 4.41451 31.7713 5.00854 31.0677C5.60256 30.3641 6.34298 29.7987 7.17811 29.4108C8.01323 29.0229 8.92294 28.8219 9.84375 28.8219C10.7646 28.8219 11.6743 29.0229 12.5094 29.4108C13.3445 29.7987 14.0849 30.3641 14.679 31.0677C15.273 31.7713 15.7063 32.596 15.9487 33.4843C16.1911 34.3727 16.2367 35.3032 16.0823 36.211H30.3239C30.1709 35.3157 30.2124 34.398 30.4456 33.5202C30.6787 32.6424 31.0981 31.8251 31.6752 31.1238C32.2523 30.4224 32.9735 29.8535 33.79 29.4557C34.6065 29.0579 35.499 28.8405 36.407 28.8182C37.3149 28.7959 38.2171 28.9694 39.052 29.3267C39.887 29.6841 40.6353 30.217 41.246 30.8892C41.8568 31.5614 42.3157 32.3572 42.5916 33.2225C42.8675 34.0878 42.9539 35.0024 42.8449 35.904C43.3848 35.6469 43.8408 35.242 44.16 34.7364C44.4792 34.2307 44.6485 33.6449 44.6484 33.0469V27.3955C44.6485 27.1868 44.5866 26.9828 44.4706 26.8093C44.3545 26.6358 44.1896 26.5007 43.9966 26.4211ZM5.30859 21.7305C5.19114 21.9621 5.01185 22.1565 4.7906 22.2924C4.56935 22.4282 4.3148 22.5001 4.05519 22.5H2.68805C2.68805 22.5 4.92047 18.0758 5.75974 16.4738C5.84902 16.3032 5.9833 16.1603 6.14801 16.0606C6.31271 15.9609 6.50157 15.9082 6.6941 15.9082H7.55771C7.63268 15.9082 7.70641 15.9273 7.77189 15.9638C7.83737 16.0003 7.89242 16.053 7.93181 16.1168C7.97121 16.1805 7.99363 16.2533 7.99694 16.3282C8.00026 16.4031 7.98436 16.4776 7.95076 16.5446L7.94725 16.5518C7.94725 16.5518 6.12457 20.1221 5.30859 21.7305ZM9.84375 26.3672H8.4375C8.15778 26.3672 7.88952 26.2561 7.69172 26.0583C7.49393 25.8605 7.38281 25.5922 7.38281 25.3125C7.38281 25.0328 7.49393 24.7645 7.69172 24.5667C7.88952 24.369 8.15778 24.2578 8.4375 24.2578H9.84375C10.1235 24.2578 10.3917 24.369 10.5895 24.5667C10.7873 24.7645 10.8984 25.0328 10.8984 25.3125C10.8984 25.5922 10.7873 25.8605 10.5895 26.0583C10.3917 26.2561 10.1235 26.3672 9.84375 26.3672ZM19.3359 21.4453C19.3359 21.725 19.2249 21.9931 19.0272 22.1909C18.8295 22.3887 18.5614 22.4999 18.2818 22.5H8.8418C8.66107 22.5 8.48338 22.4535 8.32579 22.365C8.16819 22.2765 8.03598 22.149 7.94183 21.9948C7.84768 21.8405 7.79476 21.6646 7.78813 21.484C7.78151 21.3034 7.82141 21.1241 7.904 20.9633C8.64396 19.5249 9.71561 17.4539 10.2414 16.4674C10.3312 16.2986 10.4652 16.1574 10.6292 16.0589C10.7931 15.9604 10.9806 15.9083 11.1719 15.9082H18.2812C18.561 15.9082 18.8292 16.0193 19.027 16.2171C19.2248 16.4149 19.3359 16.6832 19.3359 16.9629V21.4453ZM25.3125 26.3672H23.9941C23.7144 26.3672 23.4462 26.2561 23.2484 26.0583C23.0506 25.8605 22.9395 25.5922 22.9395 25.3125C22.9395 25.0328 23.0506 24.7645 23.2484 24.5667C23.4462 24.369 23.7144 24.2578 23.9941 24.2578H25.3125C25.5922 24.2578 25.8605 24.369 26.0583 24.5667C26.2561 24.7645 26.3672 25.0328 26.3672 25.3125C26.3672 25.5922 26.2561 25.8605 26.0583 26.0583C25.8605 26.2561 25.5922 26.3672 25.3125 26.3672ZM23.5547 22.5C23.275 22.5 23.0067 22.3889 22.8089 22.1911C22.6111 21.9933 22.5 21.7251 22.5 21.4453V16.9629C22.5 16.6832 22.6111 16.4149 22.8089 16.2171C23.0067 16.0193 23.275 15.9082 23.5547 15.9082H29.3379L33.3984 22.5H23.5547Z" fill="#2F9AAA"/>
</svg>
