<svg width="40" height="40" viewBox="0 0 40 40" fill="none" xmlns="http://www.w3.org/2000/svg">
<g clip-path="url(#clip0)">
<path d="M12.2418 27.5863C11.0073 30.8898 8.3728 37.9105 7.75211 39.5518C7.65298 39.8206 7.39719 39.9994 7.11074 40.0001H1.24177C0.992052 39.9981 0.762919 39.8613 0.642736 39.6424C0.522553 39.4235 0.530097 39.1567 0.66246 38.9449C0.66246 38.9381 6.43487 29.6898 8.51763 26.3726C9.61333 27.1332 10.9083 27.5553 12.2418 27.5863Z" fill="#2F9AAA"/>
<path d="M38.7593 40.0001H32.8903C32.6039 39.9994 32.3481 39.8206 32.2489 39.5518C31.6282 37.9105 28.9938 30.8898 27.7593 27.5863C29.0927 27.5553 30.3877 27.1332 31.4834 26.3726C33.5662 29.6898 39.3386 38.9381 39.3386 38.9449C39.471 39.1567 39.4785 39.4235 39.3583 39.6424C39.2381 39.8613 39.009 39.9981 38.7593 40.0001Z" fill="#2F9AAA"/>
<path d="M6.89697 14.5381V20.6898C6.89697 23.7369 9.36712 26.2071 12.4142 26.2071H14.4832C14.4832 23.1726 14.4832 17.6415 6.89697 14.5381ZM11.0349 22.0691H9.65559C9.2747 22.0691 8.96594 21.7604 8.96594 21.3795C8.96594 20.9986 9.2747 20.6898 9.65559 20.6898H11.0349C11.4158 20.6898 11.7246 20.9986 11.7246 21.3795C11.7246 21.7604 11.4158 22.0691 11.0349 22.0691Z" fill="#2F9AAA"/>
<path d="M11.0347 10.3448V11.1793C12.0426 11.7294 12.9963 12.3737 13.8829 13.1035H19.3105V4.13794H17.2416C13.8158 4.14326 11.04 6.91907 11.0347 10.3448Z" fill="#2F9AAA"/>
<path d="M22.759 0H17.2418C11.5293 0.00190321 6.89888 4.63233 6.89697 10.3448V13.0552C15.8625 16.4552 15.8625 23.0207 15.8625 26.2069H24.1384C24.1384 23.2207 24.1384 16.4759 33.1039 13.0552V10.3448C33.102 4.63233 28.4715 0.00190321 22.759 0ZM21.3797 23.4483H18.6211C18.2402 23.4483 17.9315 23.1395 17.9315 22.7586C17.9315 22.3777 18.2402 22.069 18.6211 22.069H21.3797C21.7606 22.069 22.0694 22.3777 22.0694 22.7586C22.0694 23.1395 21.7606 23.4483 21.3797 23.4483ZM21.3797 20.6897H18.6211C18.2402 20.6897 17.9315 20.3809 17.9315 20C17.9315 19.6191 18.2402 19.3103 18.6211 19.3103H21.3797C21.7606 19.3103 22.0694 19.6191 22.0694 20C22.0694 20.3809 21.7606 20.6897 21.3797 20.6897ZM21.3797 17.931H18.6211C18.2402 17.931 17.9315 17.6223 17.9315 17.2414C17.9315 16.8605 18.2402 16.5517 18.6211 16.5517H21.3797C21.7606 16.5517 22.0694 16.8605 22.0694 17.2414C22.0694 17.6223 21.7606 17.931 21.3797 17.931ZM30.3452 11.1793C30.3413 11.6815 30.0672 12.1427 29.628 12.3862C27.0459 13.8166 27.0459 14.4828 26.1246 14.4828H13.8763C12.9577 14.4828 12.959 13.8186 10.3728 12.3862C9.93359 12.1427 9.65952 11.6815 9.65559 11.1793V10.3448C9.65826 6.15618 13.0532 2.76128 17.2418 2.75862H22.759C26.9477 2.76128 30.3426 6.15618 30.3452 10.3448V11.1793Z" fill="#2F9AAA"/>
<path d="M22.7589 4.13794H20.6899V13.1035H26.1244C27.0062 12.3738 27.9553 11.7295 28.9589 11.1793L28.9658 10.3448C28.9605 6.91907 26.1847 4.14326 22.7589 4.13794Z" fill="#2F9AAA"/>
<path d="M25.5176 26.2071H27.5865C30.6336 26.2071 33.1038 23.7369 33.1038 20.6898V14.5381C25.5176 17.6691 25.5176 23.3519 25.5176 26.2071ZM30.3452 20.6898C30.726 20.6898 31.0348 20.9986 31.0348 21.3795C31.0348 21.7604 30.726 22.0691 30.3452 22.0691H28.9659C28.585 22.0691 28.2762 21.7604 28.2762 21.3795C28.2762 20.9986 28.585 20.6898 28.9659 20.6898H30.3452Z" fill="#2F9AAA"/>
<path d="M27.8414 31.7242H12.1587L13.1932 28.9656H26.8069L27.8414 31.7242Z" fill="#2F9AAA"/>
<path d="M30.4205 38.6209H9.5791L10.6136 35.8623H29.386L30.4205 38.6209Z" fill="#2F9AAA"/>
</g>
<defs>
<clipPath id="clip0">
<rect width="40" height="40" fill="white"/>
</clipPath>
</defs>
</svg>
