<svg width="40" height="40" viewBox="0 0 40 40" fill="none" xmlns="http://www.w3.org/2000/svg">
<path d="M20 0C11.912 0 5.33191 6.58008 5.33191 14.668C5.33191 17.2246 5.99996 19.742 7.26386 21.9484C8.37855 23.8943 9.93535 25.5691 11.7912 26.825V40H28.2088V26.825C30.0646 25.5691 31.6215 23.8943 32.7361 21.9484C34 19.742 34.6681 17.2245 34.6681 14.668C34.668 6.58008 28.0879 0 20 0V0ZM14.135 30.6175H25.865V32.965H14.135V30.6175ZM15.3087 15.8418C14.6615 15.8418 14.135 15.3152 14.135 14.668C14.135 14.0209 14.6615 13.4944 15.3087 13.4944C15.9559 13.4944 16.4824 14.0209 16.4824 14.668C16.4824 15.3152 15.9559 15.8418 15.3087 15.8418ZM21.1737 18.1855V28.2738H18.8261V18.1855H21.1737ZM23.5175 14.668C23.5175 14.0209 24.0439 13.4944 24.6911 13.4944C25.3383 13.4944 25.8649 14.0209 25.8649 14.668C25.8649 15.3152 25.3383 15.8418 24.6911 15.8418C24.0439 15.8418 23.5175 15.3152 23.5175 14.668ZM14.135 37.6562V35.3088H25.865V37.6562H14.135ZM30.7024 20.7834C29.6724 22.5815 28.1933 24.1041 26.425 25.1868L25.865 25.5297V28.2738H23.5175V18.1855H24.6911C26.6307 18.1855 28.2086 16.6076 28.2086 14.668C28.2086 12.7285 26.6307 11.1506 24.6911 11.1506C22.7516 11.1506 21.1737 12.7285 21.1737 14.668C21.1737 15.0795 21.2453 15.4745 21.3758 15.8418H18.624C18.7545 15.4745 18.8261 15.0795 18.8261 14.668C18.8261 12.7285 17.2482 11.1506 15.3087 11.1506C13.3692 11.1506 11.7912 12.7285 11.7912 14.668C11.7912 16.6076 13.3692 18.1855 15.3087 18.1855H16.4824V28.2738H14.1349V25.5297L13.5749 25.1868C11.8065 24.1041 10.3275 22.5814 9.29746 20.7834C8.23644 18.9312 7.67558 16.8165 7.67558 14.668C7.67566 7.87242 13.2043 2.34375 20 2.34375C26.7956 2.34375 32.3243 7.87242 32.3243 14.668C32.3243 16.8165 31.7634 18.9312 30.7024 20.7834Z" fill="#EF855B"/>
</svg>
