<svg width="47" height="47" viewBox="0 0 47 47" fill="none" xmlns="http://www.w3.org/2000/svg">
<g clip-path="url(#clip0)">
<path d="M46.971 14.84C44.8618 7.80947 46.9353 2.09036 46.9562 2.03427C47.0469 1.79229 46.9945 1.51984 46.8204 1.32872C46.6463 1.13769 46.38 1.06031 46.1304 1.12823C37.9852 3.34971 33.5463 6.99625 33.3612 7.15037C33.2145 7.27265 33.1252 7.45037 33.1145 7.64112L32.4005 20.4934L29.9169 21.7753C30.4972 20.7728 30.8113 19.7208 30.8113 18.7171C30.8113 18.3377 30.7735 17.9702 30.7027 17.6146C30.7172 17.5917 30.7314 17.5686 30.7433 17.5435C31.9386 15.0555 32.0214 12.3789 31.8805 10.5716C31.8263 9.87784 31.384 9.3042 30.7262 9.07453C30.064 8.84347 29.3559 9.01844 28.8781 9.53149L25.5715 13.0818C24.9139 12.9472 24.2187 12.8776 23.5 12.8776C22.7685 12.8776 22.0755 12.9485 21.4274 13.0805L18.1219 9.53149C17.6441 9.01835 16.9358 8.84338 16.2739 9.07453C15.6161 9.3042 15.1738 9.87784 15.1195 10.5717C14.9786 12.379 15.0614 15.0555 16.2567 17.5435C16.2692 17.5694 16.2838 17.5935 16.2989 17.6171C16.2276 17.9702 16.1888 18.3368 16.1888 18.717C16.1888 19.7208 16.5029 20.7727 17.0832 21.7752L14.5995 20.4933L13.8855 7.64103C13.875 7.45027 13.7856 7.27256 13.6389 7.15028C13.4538 6.99616 9.01498 3.34962 0.869676 1.12814C0.62054 1.06021 0.35387 1.13741 0.17964 1.32863C0.00559366 1.51966 -0.046914 1.79211 0.0438729 2.03418C0.0650779 2.09091 2.14556 7.78533 0.0290936 14.8399C-0.0437012 15.0825 0.0226678 15.3454 0.201671 15.5245C0.251242 15.574 5.15107 20.5547 5.15107 27.5472C5.15107 27.8626 5.36836 28.1383 5.67404 28.2155C5.68836 28.2191 7.13104 28.5958 9.42687 30.228C13.2799 32.9673 16.5215 37.0666 18.5625 40.0231C18.5807 40.0495 18.6008 40.0739 18.6219 40.097C19.6321 41.9042 21.0486 43.8055 23.0229 45.7039C23.1561 45.832 23.3281 45.8961 23.5 45.8961C23.672 45.8961 23.844 45.832 23.9772 45.7039C25.9636 43.7939 27.3855 41.8808 28.3969 40.0637C28.4171 40.0414 28.4362 40.0178 28.4538 39.9924C30.4928 37.0448 33.731 32.9574 37.5788 30.2242C39.8716 28.5956 41.312 28.2189 41.3232 28.2161C41.6317 28.1411 41.849 27.8647 41.849 27.5471C41.849 20.5745 46.7494 15.5735 46.7984 15.5243C46.9774 15.3456 47.0438 15.0826 46.971 14.84ZM23.5001 14.2546C24.8618 14.2546 26.1121 14.535 27.1155 15.0654C27.4521 15.2433 27.8683 15.1145 28.046 14.7784C28.2237 14.4422 28.0952 14.0257 27.759 13.848C27.5309 13.7274 27.2928 13.6178 27.0461 13.519L29.8858 10.47C30.0321 10.313 30.205 10.3511 30.2722 10.3746C30.3377 10.3975 30.4917 10.4729 30.5077 10.6789C30.6157 12.0643 30.5819 14.0065 29.9267 15.9104C29.7272 15.7961 29.4752 15.7836 29.2578 15.9007C28.9231 16.081 28.7978 16.4986 28.9781 16.8334C29.2808 17.3953 29.4343 18.0291 29.4343 18.7171C29.4343 20.0198 28.6743 21.5279 27.4012 22.7512C27.0216 23.116 26.6153 23.4377 26.2 23.7078C26.3263 23.3007 26.3962 22.8587 26.3962 22.3964C26.3962 20.3938 25.0971 18.7645 23.5001 18.7645C21.9031 18.7645 20.604 20.3938 20.604 22.3964C20.604 22.8564 20.6732 23.2962 20.7982 23.7016C19.0707 22.5716 17.5658 20.6004 17.5658 18.7171C17.5658 16.4959 19.4008 14.2546 23.5001 14.2546ZM25.0192 22.3964C25.0192 23.6187 24.3235 24.6513 23.5 24.6513C22.6765 24.6514 21.9809 23.6188 21.9809 22.3964C21.9809 21.1742 22.6765 20.1414 23.5 20.1414C24.3235 20.1414 25.0192 21.1742 25.0192 22.3964ZM17.0391 15.8077C16.4176 13.9369 16.3863 12.0395 16.4924 10.6789C16.5084 10.4729 16.6625 10.3975 16.7278 10.3746C16.7952 10.3511 16.9681 10.3132 17.1143 10.47L19.9529 13.5179C18.6928 14.0246 17.6912 14.8119 17.0391 15.8077ZM9.60202 6.14171C10.3844 6.58261 11.0264 6.98606 11.5234 7.31781C7.64436 8.24542 4.88807 9.99332 3.19608 11.3777C2.74885 11.7436 2.35458 12.1004 2.0086 12.4368C2.75922 8.11855 2.15685 4.58713 1.70714 2.80279C5.21129 3.86974 7.90121 5.18335 9.60202 6.14171ZM1.5744 14.9812C2.51201 13.7543 5.67936 10.1792 11.6748 8.69678C11.0231 9.71563 10.1155 11.244 9.1759 13.1727C8.01522 15.5551 6.65443 18.8909 5.8323 22.7263C4.69778 18.8037 2.48475 16.0113 1.5744 14.9812ZM30.2832 35.2963C30.5208 34.3195 30.6528 33.4174 30.717 32.6153C31.0025 29.0463 30.0661 26.6559 30.0261 26.5558C29.8848 26.2028 29.4839 26.0309 29.1312 26.1723C28.7782 26.3135 28.6064 26.7142 28.7476 27.0672C28.7562 27.0887 29.6045 29.2546 29.3445 32.5055C29.1105 35.4306 27.8957 39.7997 23.4999 44.2415C19.9801 40.6913 18.0167 36.7702 17.6616 32.5781C17.3848 29.3109 18.2443 27.0878 18.2525 27.0672C18.3937 26.7142 18.2219 26.3135 17.8689 26.1723C17.5161 26.031 17.1151 26.2027 16.9739 26.5558C16.9339 26.6559 15.9975 29.0462 16.2831 32.6153C16.3473 33.4186 16.4796 34.3224 16.7181 35.3011C11.8635 29.4649 7.98006 27.5903 6.56814 27.062C7.0229 21.699 8.88738 16.9146 10.399 13.806C11.2131 12.1317 12.0118 10.7562 12.6251 9.77448L13.2466 20.9628C13.2601 21.2064 13.4016 21.4246 13.6183 21.5365L20.0089 24.8349C21.1116 25.5612 22.2845 25.9856 23.3465 26.0232C23.3974 26.0265 23.4486 26.0285 23.5002 26.0285C23.5518 26.0285 23.6029 26.0266 23.6539 26.0232C24.7159 25.9857 25.8888 25.5613 26.9915 24.8349L33.3821 21.5365C33.5989 21.4246 33.7402 21.2064 33.7538 20.9628L34.3754 9.77466C34.9888 10.7564 35.7872 12.1315 36.6014 13.806C38.1131 16.9146 39.9787 21.6986 40.4335 27.0617C39.0229 27.5896 35.1394 29.4636 30.2832 35.2963ZM41.168 22.7261C40.3458 18.8908 38.9849 15.555 37.8243 13.1726C36.8845 11.2438 35.9769 9.71527 35.325 8.69614C35.6975 8.78784 36.0652 8.88873 36.4259 8.99898C36.4929 9.01945 36.5608 9.02927 36.6274 9.02927C36.9222 9.02927 37.1949 8.83842 37.2856 8.54183C37.3967 8.17822 37.192 7.79332 36.8285 7.68215C36.3869 7.54721 35.9353 7.42677 35.4779 7.318C37.152 6.20322 40.4933 4.26263 45.2932 2.80242C44.8437 4.58594 44.2415 8.11516 44.9906 12.4308C43.8112 11.2843 42.0554 9.89629 39.6415 8.76361C39.2977 8.60223 38.8874 8.75021 38.7257 9.09444C38.5642 9.43868 38.7123 9.84865 39.0565 10.0102C42.6584 11.7004 44.7013 14.0366 45.425 14.9816C44.5144 16.0125 42.3022 18.8045 41.168 22.7261Z" fill="#EF855B"/>
<path d="M19.8207 18.0287C19.4404 18.0287 19.1323 18.3369 19.1323 18.7172V19.453C19.1323 19.8332 19.4404 20.1415 19.8207 20.1415C20.2011 20.1415 20.5092 19.8332 20.5092 19.453V18.7172C20.5092 18.3369 20.2011 18.0287 19.8207 18.0287Z" fill="#EF855B"/>
<path d="M27.1794 18.0287C26.799 18.0287 26.4909 18.3369 26.4909 18.7172V19.453C26.4909 19.8332 26.7991 20.1415 27.1794 20.1415C27.5597 20.1415 27.8678 19.8332 27.8678 19.453V18.7172C27.8678 18.3369 27.5597 18.0287 27.1794 18.0287Z" fill="#EF855B"/>
</g>
<defs>
<clipPath id="clip0">
<rect width="47" height="47" fill="white"/>
</clipPath>
</defs>
</svg>
