<svg width="21" height="21" viewBox="0 0 21 21" fill="none" xmlns="http://www.w3.org/2000/svg">
<path d="M10.5 0C4.7104 0 0 4.7104 0 10.5C0 16.2896 4.7104 21 10.5 21C16.2896 21 21 16.2896 21 10.5C21 4.7104 16.2896 0 10.5 0ZM10.5 19.6875C5.43392 19.6875 1.31251 15.5661 1.31251 10.5C1.31251 5.43392 5.43392 1.31251 10.5 1.31251C15.5661 1.31251 19.6875 5.43392 19.6875 10.5C19.6875 15.5661 15.5661 19.6875 10.5 19.6875Z" fill="black"/>
<path d="M11.1563 3.9375H9.84375V10.7717L13.9735 14.9015L14.9015 13.9735L11.1563 10.2283V3.9375Z" fill="black"/>
</svg>
