<svg width="45" height="45" viewBox="0 0 45 45" fill="none" xmlns="http://www.w3.org/2000/svg">
<path fill-rule="evenodd" clip-rule="evenodd" d="M41.4483 18.1649H11.4625L40.2642 9.82143C40.488 9.75655 40.6769 9.60514 40.7895 9.40121C40.9021 9.19693 40.9289 8.9566 40.864 8.73276L39.3568 3.5297C38.7546 1.45157 36.8196 0 34.6512 0C34.1943 0 33.739 0.064888 33.2975 0.192604L6.25568 8.0262C5.00496 8.3884 3.96847 9.21993 3.33641 10.367C2.7047 11.514 2.55638 12.8348 2.91859 14.0852L4.3911 19.1684V40.1087C4.3911 42.8058 6.58527 45 9.28207 45H19.8434C20.3288 45 20.7223 44.6066 20.7223 44.1211C20.7223 43.6356 20.3288 43.2422 19.8434 43.2422H9.28242C7.55447 43.2422 6.14891 41.8366 6.14891 40.1087V28.148H10.6516H10.6536H10.6554H17.5383H17.5404H17.5424H24.4254H24.4274H24.4295H31.3124H31.3145H31.3162H40.5694V40.1087C40.5694 41.8366 39.1639 43.2422 37.4359 43.2422H26.8746C26.3895 43.2422 25.9957 43.6356 25.9957 44.1211C25.9957 44.6066 26.3895 45 26.8746 45H37.4359C40.1331 45 42.3272 42.8058 42.3272 40.1087V19.0438C42.3272 18.5583 41.9338 18.1649 41.4483 18.1649ZM25.9504 26.3902L29.6847 19.9227H34.5417L30.8077 26.3902H25.9504ZM19.0633 26.3902L22.7977 19.9227H27.6546L23.9207 26.3902H19.0633ZM12.1766 26.3902L15.9106 19.9227H20.7679L17.0336 26.3902H12.1766ZM15.4444 15.0121L9.19109 9.00604L13.8764 7.64889C13.9094 7.69695 13.9478 7.74227 13.9918 7.7845L20.2451 13.7906L15.5597 15.1477C15.5268 15.0997 15.488 15.054 15.4444 15.0121ZM27.2217 3.95199L33.475 9.95808L28.7897 11.3152C28.7567 11.2672 28.7183 11.2215 28.6743 11.1796L22.421 5.17353L27.1064 3.81638C27.1393 3.86444 27.1778 3.90976 27.2217 3.95199ZM20.6066 5.86842L26.8599 11.8742L22.1745 13.2317C22.1416 13.1836 22.1031 13.1379 22.0592 13.096L15.8059 7.08996L20.4912 5.7328C20.5245 5.78053 20.563 5.82619 20.6066 5.86842ZM33.7867 1.88107C34.0689 1.79935 34.3597 1.75781 34.6512 1.75781C36.042 1.75781 37.2824 2.68753 37.6683 4.01894L38.9311 8.37742L35.4048 9.3988C35.3715 9.35074 35.3331 9.30542 35.2891 9.26319L29.0362 3.25745L33.7867 1.88107ZM4.87621 11.215C5.28133 10.4792 5.94498 9.9464 6.74492 9.71466L7.26128 9.56497C7.29458 9.61304 7.33303 9.6587 7.37663 9.70058L13.6299 15.7067L5.86979 17.9548L4.60705 13.5963C4.3753 12.7967 4.47109 11.9511 4.87621 11.215ZM6.14891 19.9227H13.8809L10.1469 26.3902H6.14891V19.9227ZM32.8374 26.3902L36.5714 19.9227H40.5694V26.3902H32.8374Z" fill="#2F9AAA"/>
<path fill-rule="evenodd" clip-rule="evenodd" d="M29.4365 35.6057C29.4365 35.2915 29.2689 35.0014 28.997 34.8445L21.2754 30.3865C21.0034 30.2296 20.6684 30.2296 20.3965 30.3865C20.1245 30.5434 19.957 30.8335 19.957 31.1476V40.0637C19.957 40.3775 20.1245 40.6676 20.3965 40.8245C20.5324 40.9031 20.6842 40.9426 20.8359 40.9426C20.9877 40.9426 21.1394 40.9031 21.2754 40.8245L28.997 36.3668C29.2689 36.2099 29.4365 35.9198 29.4365 35.6057ZM21.7148 38.5414V32.6699L26.7998 35.6057L21.7148 38.5414Z" fill="#2F9AAA"/>
<path fill-rule="evenodd" clip-rule="evenodd" d="M23.359 43.2422C22.8749 43.2422 22.4801 43.637 22.4801 44.1211C22.4801 44.6052 22.8749 45 23.359 45C23.8434 45 24.2379 44.6052 24.2379 44.1211C24.2379 43.637 23.8434 43.2422 23.359 43.2422Z" fill="#2F9AAA"/>
</svg>
