<svg width="33" height="33" viewBox="0 0 33 33" fill="none" xmlns="http://www.w3.org/2000/svg">
<path d="M3.43748 15.125V11C3.81698 11 4.125 10.692 4.125 10.3125C4.125 9.93299 3.81698 9.62497 3.43748 9.62497C1.5414 9.62497 0 11.1677 0 13.0625V14.4375C0 15.5746 0.925354 16.5 2.0625 16.5H3.43748C3.81698 16.5 4.125 16.192 4.125 15.8125C4.125 15.433 3.81698 15.125 3.43748 15.125Z" fill="#2F9AAA"/>
<path d="M29.5625 9.62497C29.183 9.62497 28.875 9.93299 28.875 10.3125C28.875 10.692 29.183 11 29.5625 11V15.125C29.183 15.125 28.875 15.433 28.875 15.8125C28.875 16.192 29.183 16.5 29.5625 16.5H30.9375C32.0746 16.5 33 15.5746 33 14.4375V13.0625C33 11.1677 31.4586 9.62497 29.5625 9.62497Z" fill="#2F9AAA"/>
<path d="M11.6876 28.875C11.3081 28.875 11 29.183 11 29.5625H6.87504C6.87504 29.183 6.56702 28.875 6.18752 28.875C5.80802 28.875 5.5 29.183 5.5 29.5625V30.9375C5.5 32.0746 6.42535 33 7.5625 33H10.3126C11.4497 33 12.3751 32.0746 12.3751 30.9375V29.5625C12.3751 29.183 12.0671 28.875 11.6876 28.875Z" fill="#2F9AAA"/>
<path d="M26.8125 28.875C26.433 28.875 26.125 29.183 26.125 29.5625H22C22 29.183 21.692 28.875 21.3125 28.875C20.933 28.875 20.625 29.183 20.625 29.5625V30.9375C20.625 32.0746 21.5504 33 22.6875 33H25.4375C26.5747 33 27.5 32.0746 27.5 30.9375V29.5625C27.5 29.183 27.192 28.875 26.8125 28.875Z" fill="#2F9AAA"/>
<path d="M26.8125 0H6.18748C4.29133 0 2.75 1.54275 2.75 3.43748V26.8125C2.75 28.7072 4.2914 30.25 6.18748 30.25H26.8125C28.7086 30.25 30.25 28.7072 30.25 26.8125V3.43748C30.25 1.54275 28.7086 0 26.8125 0ZM8.9375 2.75002H24.0625C25.1997 2.75002 26.125 3.67537 26.125 4.81252C26.125 5.94967 25.1997 6.87502 24.0625 6.87502H8.9375C7.80035 6.87502 6.875 5.94967 6.875 4.81252C6.875 3.67537 7.80035 2.75002 8.9375 2.75002ZM8.9375 26.125C7.80035 26.125 6.875 25.1996 6.875 24.0625C6.875 22.9253 7.80035 22 8.9375 22C10.0746 22 11 22.9253 11 24.0625C11 25.1996 10.0746 26.125 8.9375 26.125ZM24.0625 26.125C22.9253 26.125 22 25.1996 22 24.0625C22 22.9253 22.9253 22 24.0625 22C25.1996 22 26.125 22.9253 26.125 24.0625C26.125 25.1996 25.1996 26.125 24.0625 26.125ZM27.5 17.1875C27.5 18.3247 26.5746 19.25 25.4375 19.25H7.56246C6.42531 19.25 5.49996 18.3247 5.49996 17.1875V10.3125C5.49996 9.17535 6.42531 8.25 7.56246 8.25H25.4374C26.5746 8.25 27.4999 9.17535 27.4999 10.3125V17.1875H27.5Z" fill="#2F9AAA"/>
</svg>
