<svg width="60" height="60" viewBox="0 0 60 60" fill="none" xmlns="http://www.w3.org/2000/svg">
<g clip-path="url(#clip0)">
<path d="M58.8281 54.9281H55.602L53.8288 40.3312C53.8161 40.2265 53.7893 40.1241 53.7492 40.0267L50.8124 32.8873C50.8109 32.8838 50.8096 32.8803 50.808 32.8768L47.0883 23.834C46.9076 23.3947 46.4796 23.1079 46.0045 23.1079H38.1197L39.5657 21.6789C40.026 21.224 40.0304 20.4821 39.5755 20.0217C39.1202 19.5612 38.3784 19.5569 37.9181 20.0118L36.4384 21.4741V19.3535C36.4384 18.7062 35.9136 18.1816 35.2665 18.1816C34.6194 18.1816 34.0947 18.7062 34.0947 19.3535V21.5777L32.3982 19.9898C31.9256 19.5475 31.1842 19.5719 30.7418 20.0445C30.2995 20.517 30.324 21.2586 30.7965 21.7008L33.1982 23.9488L23.2972 28.5517C23.0591 28.6625 22.865 28.85 22.7462 29.0841L21.3873 31.7628C21.0945 32.3399 21.325 33.0453 21.9022 33.338C22.4793 33.6309 23.1846 33.4003 23.4775 32.8231L24.653 30.506L35.5256 25.4514H45.2194L47.981 32.165H44.1511L43.2227 30.1789C43.03 29.7666 42.6161 29.5032 42.161 29.5032H38.7418C38.0947 29.5032 37.57 30.0278 37.57 30.6751C37.57 31.3223 38.0947 31.8469 38.7418 31.8469H41.4152L42.3436 33.833C42.5364 34.2453 42.9503 34.5087 43.4053 34.5087H48.9451L51.5213 40.7713L53.241 54.9279H44.1877V47.457C44.1877 47.1384 44.0579 46.8335 43.8282 46.6124L38.0142 41.0192C37.796 40.8092 37.5047 40.6919 37.2018 40.6919H28.3584C27.9773 40.6919 27.62 40.8773 27.4004 41.1888L22.3861 48.3056C22.2691 48.4716 22.1973 48.6652 22.1777 48.8674L21.5896 54.9279H12.6865L13.1318 53.5446L15.3397 52.3956C15.9138 52.0969 16.1372 51.3892 15.8384 50.8151C15.5396 50.241 14.832 50.0178 14.2579 50.3165L11.6228 51.6876C11.3491 51.83 11.1427 52.0744 11.0482 52.3681L10.2241 54.9279H6.79898L9.55066 45.9759L16.5933 45.2159C16.9874 45.1734 17.3333 44.9345 17.5126 44.581L18.8245 41.995C19.1174 41.4179 18.8869 40.7125 18.3096 40.4198C17.7323 40.1268 17.0271 40.3574 16.7344 40.9347L15.71 42.954L10.7054 43.4941L11.6905 41.5986C11.9889 41.0242 11.7653 40.3168 11.1911 40.0183C10.6167 39.7201 9.90926 39.9434 9.61078 40.5178L8.62793 42.4092L7.57371 40.4933C7.26164 39.9262 6.54926 39.7196 5.98207 40.0315C5.41512 40.3435 5.20828 41.0561 5.52035 41.6232L7.39148 45.024L4.34695 54.9281H1.17188C0.524648 54.9281 0 55.4527 0 56.0999C0 56.7472 0.524648 57.2718 1.17188 57.2718H58.8281C59.4752 57.2718 60 56.7472 60 56.0999C60 55.4527 59.4752 54.9281 58.8281 54.9281ZM23.9443 54.9281L24.4806 49.4023L28.9663 43.0358H36.7296L41.844 47.9559V54.9281H23.9443Z" fill="#2F9AAA"/>
<path d="M13.4421 21.0998C16.8259 21.0998 19.5786 18.347 19.5786 14.9633C19.5786 11.5795 16.8258 8.82678 13.4421 8.82678C10.0584 8.82678 7.30559 11.5796 7.30559 14.9633C7.30559 18.3471 10.0584 21.0998 13.4421 21.0998ZM13.4421 11.1705C15.5334 11.1705 17.2349 12.872 17.2349 14.9633C17.2349 17.0546 15.5334 18.7561 13.4421 18.7561C11.3508 18.7561 9.64934 17.0546 9.64934 14.9633C9.64934 12.872 11.3508 11.1705 13.4421 11.1705Z" fill="#2F9AAA"/>
<path d="M45.548 9.35703H53.1152C53.7623 9.35703 54.2871 8.83239 54.2871 8.18516C54.2871 7.53793 53.7623 7.01328 53.1152 7.01328H45.548C45.0128 7.01328 44.5773 6.57781 44.5773 6.0425C44.5773 5.50731 45.0128 5.07184 45.548 5.07184H47.1717C47.8188 5.07184 48.3436 4.54719 48.3436 3.89996C48.3436 3.25274 47.8188 2.72809 47.1717 2.72809H45.548C43.7203 2.72809 42.2336 4.21496 42.2336 6.0425C42.2336 7.87016 43.7203 9.35703 45.548 9.35703Z" fill="#2F9AAA"/>
<path d="M37.4978 14.3218H46.8245C47.4716 14.3218 47.9964 13.7972 47.9964 13.15C47.9964 12.5027 47.4716 11.9781 46.8245 11.9781H37.4978C36.8507 11.9781 36.3259 12.5027 36.3259 13.15C36.3259 13.7972 36.8507 14.3218 37.4978 14.3218Z" fill="#2F9AAA"/>
<path d="M52.8879 12.4992C52.538 11.9638 51.7905 11.8261 51.2625 12.1757C50.7298 12.5286 50.5876 13.2702 50.9391 13.8C51.2923 14.3326 52.0333 14.4775 52.5644 14.1246C53.0955 13.7715 53.2412 13.0286 52.8879 12.4992Z" fill="#2F9AAA"/>
<path d="M19.3324 35.9425C18.5511 36.7238 19.244 38.1016 20.3394 37.9286C21.3655 37.7667 21.6864 36.3847 20.8155 35.7999C20.3593 35.4936 19.72 35.5462 19.3324 35.9425Z" fill="#2F9AAA"/>
</g>
<defs>
<clipPath id="clip0">
<rect width="60" height="60" fill="white"/>
</clipPath>
</defs>
</svg>
