<svg width="50" height="50" viewBox="0 0 50 50" fill="none" xmlns="http://www.w3.org/2000/svg">
<path d="M49.1667 0.465088H0.833333C0.373125 0.465088 0 0.838213 0 1.29842V34.6318C0 35.092 0.373125 35.4651 0.833333 35.4651H15.8808C15.9058 35.7426 15.9467 36.0159 15.9958 36.2868L11.425 41.7343C11.129 42.0867 11.1747 42.6123 11.5271 42.9083C11.6264 42.9918 11.7439 43.0508 11.87 43.0809L16.9017 44.2826L18.9592 49.0326C19.1421 49.4549 19.6327 49.6491 20.055 49.4661C20.174 49.4147 20.2792 49.3361 20.3625 49.2368L24.9258 43.7984C24.9508 43.7984 24.975 43.7984 25 43.7984C25.025 43.7984 25.0492 43.7984 25.0742 43.7984L29.6375 49.2368C29.9331 49.5895 30.4587 49.6357 30.8115 49.3401C30.9107 49.2569 30.9893 49.1516 31.0408 49.0326L33.0983 44.2826L38.13 43.0809C38.5777 42.9743 38.8543 42.5249 38.7476 42.0772C38.7175 41.951 38.6584 41.8335 38.575 41.7343L34.0042 36.2868C34.0533 36.0159 34.0942 35.7426 34.1192 35.4651H49.1667C49.6269 35.4651 50 35.092 50 34.6318V1.29842C50 0.838109 49.6269 0.465088 49.1667 0.465088ZM19.9525 47.1318L18.265 43.2401C18.1607 42.9995 17.9493 42.822 17.6942 42.7609L13.5692 41.7751L16.5608 38.2093C16.5767 38.2459 16.5975 38.2793 16.6133 38.3159C16.7217 38.5659 16.8392 38.8034 16.9692 39.0393C17.0225 39.1376 17.0792 39.2343 17.1358 39.3301C17.2503 39.5206 17.3714 39.7073 17.4992 39.8901C17.5883 40.0176 17.6817 40.1401 17.7775 40.2651C17.8892 40.4068 18.0042 40.5451 18.125 40.6818C18.2458 40.8184 18.3867 40.9693 18.5258 41.1076C18.6283 41.2101 18.7342 41.3093 18.8425 41.4068C18.9325 41.4901 19.0133 41.5776 19.1075 41.6568C19.2017 41.7359 19.29 41.7893 19.38 41.8593C19.4208 41.8909 19.4558 41.9276 19.4975 41.9584C19.5725 42.0151 19.6517 42.0643 19.7283 42.1184C19.8483 42.2018 19.9667 42.2918 20.0908 42.3684C20.3275 42.5201 20.5717 42.6584 20.8192 42.7851C20.9142 42.8334 21.0108 42.8776 21.1075 42.9226C21.3297 43.0271 21.5533 43.1221 21.7783 43.2076C21.8433 43.2318 21.9075 43.2593 21.9725 43.2818C22.2881 43.3927 22.6098 43.4859 22.9358 43.5609L22.945 43.5634L19.9525 47.1318ZM26.565 41.9551C26.1828 42.0358 25.795 42.0869 25.405 42.1076H25.3942C25.2625 42.1143 25.1308 42.1234 24.9983 42.1234C24.8658 42.1234 24.7342 42.1143 24.6025 42.1076H24.5917C24.2025 42.0868 23.8155 42.036 23.4342 41.9559L23.3642 41.9418C23.2158 41.9093 23.0692 41.8693 22.9242 41.8276C22.8633 41.8101 22.8017 41.7943 22.7417 41.7751C22.6375 41.7426 22.535 41.7043 22.4325 41.6676C22.33 41.6309 22.2325 41.5951 22.1342 41.5543C22.0733 41.5284 22.0133 41.5009 21.9533 41.4709C21.8167 41.4093 21.6808 41.3468 21.5483 41.2776L21.4817 41.2409C21.1381 41.0572 20.8094 40.8471 20.4983 40.6126C20.325 40.4834 20.165 40.3409 20.0075 40.2001C19.8213 40.0339 19.6434 39.8584 19.475 39.6743C19.4083 39.6026 19.3367 39.5343 19.2733 39.4601C19.0406 39.1863 18.8283 38.8958 18.6383 38.5909C18.61 38.5459 18.5858 38.4984 18.555 38.4518C18.3778 38.1557 18.2219 37.8474 18.0883 37.5293C18.0767 37.5009 18.0633 37.4726 18.0525 37.4459C17.9049 37.0813 17.7861 36.7058 17.6975 36.3226C17.6975 36.3076 17.6858 36.2959 17.6817 36.2809C17.5606 35.7396 17.4997 35.1864 17.5 34.6318C17.4975 30.4896 20.8533 27.1298 24.9954 27.1272C29.1376 27.1247 32.4974 30.4805 32.5 34.6226C32.5003 35.1836 32.4377 35.7429 32.3133 36.29C32.3092 36.3042 32.3008 36.3167 32.2975 36.3308C32.209 36.7136 32.0905 37.0889 31.9433 37.4533C31.9317 37.4825 31.9183 37.5117 31.9058 37.5367C31.7727 37.8528 31.6173 38.1592 31.4408 38.4533C31.4133 38.5 31.3883 38.5492 31.3575 38.5958C31.1675 38.9003 30.9555 39.1905 30.7233 39.4642C30.6608 39.5375 30.59 39.6042 30.5242 39.6758C30.3534 39.8617 30.1734 40.0388 29.985 40.2067C29.8267 40.3475 29.6692 40.49 29.4967 40.6183C29.3242 40.7467 29.17 40.855 29.0017 40.9625L28.9917 40.9683C28.8408 41.0642 28.6867 41.1525 28.53 41.2358C28.4992 41.2525 28.4692 41.27 28.4383 41.2858C28.3125 41.3517 28.1883 41.4108 28.0558 41.4683C27.9892 41.4983 27.9233 41.5292 27.8558 41.5567C27.7625 41.5958 27.6675 41.63 27.5725 41.6642C27.4775 41.6983 27.36 41.7425 27.2517 41.7758C27.1942 41.7942 27.1358 41.81 27.0775 41.8267C26.93 41.8683 26.7817 41.91 26.6317 41.9417L26.565 41.9551ZM36.4308 41.7726L32.3058 42.7584C32.0507 42.8195 31.8393 42.997 31.735 43.2376L30.0475 47.1318L27.055 43.5659H27.0625C27.3898 43.4911 27.7126 43.3977 28.0292 43.2859C28.0917 43.2643 28.1517 43.2384 28.2142 43.2159C28.4467 43.1276 28.6758 43.0309 28.9008 42.9234C28.9925 42.8809 29.0842 42.8401 29.1742 42.7934C29.4242 42.6634 29.6742 42.5226 29.9142 42.3684C30.03 42.2951 30.1408 42.2126 30.2533 42.1334C30.3367 42.0759 30.42 42.0234 30.5033 41.9626C30.5475 41.9293 30.5867 41.8901 30.63 41.8559C30.7133 41.7876 30.81 41.7301 30.895 41.6584C30.98 41.5868 31.0667 41.4918 31.155 41.4134C31.265 41.3134 31.3733 41.2126 31.4783 41.1084C31.6155 40.9712 31.7483 40.8301 31.8767 40.6851C31.9975 40.5484 32.1125 40.4101 32.225 40.2684C32.3208 40.1459 32.4142 40.0184 32.5033 39.8934C32.6317 39.7118 32.7533 39.5251 32.8658 39.3351C32.9242 39.2384 32.9808 39.1409 33.0325 39.0418C33.162 38.8068 33.28 38.5664 33.3867 38.3209C33.4017 38.2784 33.4233 38.2443 33.4392 38.2068L36.4308 41.7726ZM48.3333 33.7984H34.1242C33.672 28.7588 29.2199 25.04 24.1803 25.4923C19.7674 25.8883 16.2702 29.3855 15.8742 33.7984H1.66667V2.13175H48.3333V33.7984Z" fill="#2F9AAA"/>
<path d="M4.16666 3.79846C3.70645 3.79846 3.33333 4.17159 3.33333 4.6318V7.96513H4.99999V5.46513H7.49999V3.79846H4.16666Z" fill="#2F9AAA"/>
<path d="M45.8333 3.79846H42.5V5.46513H45V7.96513H46.6667V4.6318C46.6667 4.17148 46.2935 3.79846 45.8333 3.79846Z" fill="#2F9AAA"/>
<path d="M45 27.9651V30.4651H42.5V32.1318H45.8333C46.2935 32.1318 46.6667 31.7586 46.6667 31.2984V27.9651H45Z" fill="#2F9AAA"/>
<path d="M4.99999 30.4651V27.9651H3.33333V31.2984C3.33333 31.7586 3.70645 32.1318 4.16666 32.1318H7.49999V30.4651H4.99999Z" fill="#2F9AAA"/>
<path d="M35 9.63184H15V11.2985H35V9.63184Z" fill="#2F9AAA"/>
<path d="M40 14.6318H10V16.2985H40V14.6318Z" fill="#2F9AAA"/>
<path d="M25 28.7985C21.7783 28.7985 19.1667 31.4101 19.1667 34.6318C19.1703 37.8519 21.7799 40.4615 25 40.4651C28.2217 40.4651 30.8333 37.8535 30.8333 34.6318C30.8333 31.4101 28.2217 28.7985 25 28.7985ZM25 38.7985C22.6989 38.7985 20.8333 36.9329 20.8333 34.6318C20.836 32.3318 22.7 30.4678 25 30.4651C27.3012 30.4651 29.1667 32.3306 29.1667 34.6318C29.1667 36.9329 27.3012 38.7985 25 38.7985Z" fill="#2F9AAA"/>
</svg>
