<svg width="32" height="32" viewBox="0 0 32 32" fill="none" xmlns="http://www.w3.org/2000/svg">
<g clip-path="url(#clip0)">
<path d="M29.274 16.6866H26.1502V15.7753C27.0133 15.1276 27.6516 14.2378 27.73 13.1739C28.6616 13.0202 29.3744 12.2091 29.3744 11.2348V11.1467C29.3744 10.4445 28.803 9.87308 28.1007 9.87308H27.9731L27.9847 9.71502C28.0708 8.5462 27.6626 7.38339 26.8649 6.52477C26.0672 5.6662 24.9376 5.17377 23.7656 5.17377C22.5936 5.17377 21.4639 5.6662 20.6663 6.52483C19.8685 7.38345 19.4604 8.5462 19.5465 9.71508L19.5581 9.87308H19.4305C18.7282 9.87308 18.1568 10.4445 18.1568 11.1467V11.2348C18.1568 12.2092 18.8696 13.0203 19.8012 13.174C19.8793 14.2358 20.516 15.1261 21.381 15.7754V16.6867H18.8528C18.8979 16.074 18.9695 15.1015 19.0147 14.4862C19.0763 13.651 18.7846 12.8201 18.2146 12.2065C17.6446 11.593 16.8374 11.2411 15.9998 11.2411C15.1623 11.2411 14.3551 11.593 13.785 12.2065C13.215 12.8201 12.9233 13.651 12.9849 14.4861C12.9877 14.5241 13.0676 15.6089 13.1469 16.6866H12.2299V13.1685C13.1461 13.002 13.8429 12.1982 13.8429 11.2348V11.1467C13.8429 10.4445 13.2716 9.87308 12.5693 9.87308H12.4417L12.4533 9.71502C12.5394 8.5462 12.1313 7.38345 11.3335 6.52483C10.5357 5.6662 9.40631 5.17377 8.23438 5.17377C7.06244 5.17377 5.93275 5.6662 5.13506 6.52483C4.33738 7.38345 3.92925 8.5462 4.01525 9.71495C4.01819 9.75452 4.02619 9.86295 4.02694 9.87314H3.89931C3.197 9.87314 2.62569 10.4445 2.62569 11.1468V11.2348C2.62569 12.1983 3.32256 13.0021 4.23875 13.1685V16.6867H2.726C1.22288 16.6866 0 17.9095 0 19.4126V25.9147C0 26.4173 0.408875 26.8262 0.9115 26.8262H31.0884C31.5911 26.8262 32 26.4173 32 25.9147V22.694C32 22.4351 31.7902 22.2252 31.5312 22.2252C31.2723 22.2252 31.0625 22.4351 31.0625 22.694V25.8888H29.3857V21.0143C29.3857 20.7554 29.1759 20.5455 28.9169 20.5455C28.658 20.5455 28.4482 20.7554 28.4482 21.0143V25.8888H21.7418V21.06C21.7418 19.9564 20.8439 19.0586 19.7403 19.0586H17.7696V18.657C18.1219 18.3805 18.4334 18.0321 18.6296 17.6241H20.4741C21.0245 18.9591 22.3515 19.8645 23.816 19.8645C25.2805 19.8645 26.6075 18.9591 27.1578 17.6241H29.2739C30.2601 17.6241 31.0624 18.4265 31.0624 19.4126V20.5065C31.0624 20.7653 31.2722 20.9752 31.5312 20.9752C31.7901 20.9752 31.9999 20.7653 31.9999 20.5065V19.4126C32 17.9095 30.7771 16.6866 29.274 16.6866ZM17.8564 17.0368C17.6004 17.8655 16.4826 18.4463 16 18.4463C15.5171 18.4463 14.3983 17.8648 14.1432 17.0353C14.1409 17.0268 14.1384 17.0183 14.1357 17.0099C14.1141 16.9338 14.0996 16.8556 14.0938 16.7757L13.9727 15.1319C15.0754 13.969 16.9274 13.9719 18.0273 15.1319L17.9063 16.7757C17.9004 16.8553 17.8862 16.9331 17.8647 17.0088C17.8616 17.018 17.8589 17.0273 17.8564 17.0368ZM16 12.1785C17.0829 12.1785 17.9164 12.9853 18.0621 13.9438C16.8346 13.129 15.2034 13.1038 13.9379 13.9438C14.0837 12.9851 14.9174 12.1785 16 12.1785ZM6.618 15.1705C6.59637 15.1525 6.57306 15.1365 6.54838 15.1226C5.8625 14.6406 5.26587 13.932 5.206 13.1193C4.97962 10.0458 4.99975 10.3187 4.99831 10.2991H6.43731C7.69831 10.2991 8.897 9.89333 9.88419 9.14345C9.985 9.97145 10.6211 10.6365 11.4349 10.7813C11.3996 11.261 11.3208 12.3311 11.2627 13.1193C11.2029 13.9321 10.6061 14.6408 9.92019 15.1227C9.89569 15.1365 9.8725 15.1525 9.851 15.1704C9.27831 15.5569 8.65463 15.785 8.23444 15.785C7.81419 15.785 7.19063 15.557 6.618 15.1705ZM10.6189 15.7754C10.8592 15.595 11.0878 15.391 11.2926 15.1653V16.6866H10.6189V15.7754ZM12.9056 11.1467V11.2348C12.9056 11.6621 12.6435 12.0293 12.2716 12.1841L12.3728 10.8106H12.5694C12.7549 10.8106 12.9056 10.9614 12.9056 11.1467ZM8.23438 6.11127C9.16006 6.11127 10.0169 6.48477 10.6469 7.16289C11.2769 7.84108 11.5865 8.72295 11.5185 9.64608L11.5045 9.8362C11.1027 9.72133 10.8077 9.3507 10.8077 8.91252V8.37445C10.8077 8.1382 10.6666 7.92708 10.4483 7.8367C10.2301 7.74633 9.98106 7.79589 9.81413 7.96289C8.91212 8.86489 7.71288 9.36158 6.43731 9.36158H4.94125C4.95919 7.61095 6.38344 6.11127 8.23438 6.11127ZM3.56312 11.2348V11.1467C3.56312 10.9614 3.71394 10.8106 3.89925 10.8106H4.09594L4.19712 12.1841C3.82525 12.0293 3.56312 11.6621 3.56312 11.2348ZM5.17619 15.1653C5.38106 15.391 5.6095 15.595 5.84987 15.7754V16.6867H5.17619V15.1653ZM20.8043 21.06V25.8888H19.8349V22.7796C19.8349 22.5208 19.6251 22.3109 19.3662 22.3109C19.1073 22.3109 18.8974 22.5208 18.8974 22.7796V25.8888H13.2033V22.7796C13.2033 22.5208 12.9934 22.3109 12.7346 22.3109C12.4757 22.3109 12.2658 22.5208 12.2658 22.7796V25.8888H11.1957V25.3465C11.1957 25.0876 10.9858 24.8777 10.7269 24.8777C10.4681 24.8777 10.2582 25.0876 10.2582 25.3465V25.8888H3.65263V21.0143C3.65263 20.7554 3.44275 20.5455 3.18388 20.5455C2.925 20.5455 2.71513 20.7554 2.71513 21.0143V25.8888H0.9375V19.4126C0.9375 18.4265 1.73981 17.6241 2.726 17.6241H4.94238C5.24413 18.3616 5.78056 18.9778 6.48012 19.382C6.70388 19.5112 6.99075 19.4351 7.1205 19.2106C7.25 18.9865 7.17331 18.6997 6.94912 18.5702C6.54787 18.3384 6.21906 18.0126 5.98731 17.6241C6.44681 17.6241 6.78731 17.2574 6.78731 16.8324V16.3391C7.31881 16.5887 7.83787 16.7225 8.23431 16.7225C8.63075 16.7225 9.14981 16.5887 9.68131 16.3391V16.8324C9.68131 17.269 10.0365 17.6241 10.4731 17.6241H10.5798C10.1879 18.2745 9.52575 18.746 8.766 18.8839C8.51131 18.9301 8.34231 19.1741 8.3885 19.4288C8.43456 19.6826 8.67756 19.8526 8.93344 19.8063C10.1389 19.5875 11.1626 18.7473 11.6264 17.6241H13.3703C13.5666 18.0321 13.8781 18.3805 14.2303 18.657V19.0586H12.2596C11.156 19.0586 10.2581 19.9565 10.2581 21.06V23.1589C10.2581 23.4178 10.468 23.6276 10.7269 23.6276C10.9858 23.6276 11.1956 23.4178 11.1956 23.1589V21.06C11.1956 20.4733 11.6729 19.9961 12.2596 19.9961H13.6664C14.0849 20.9068 15.0132 21.5173 16.0341 21.5173C17.055 21.5173 17.9833 20.9068 18.4018 19.9961H19.7402C20.3269 19.9961 20.8043 20.4733 20.8043 21.06ZM17.3231 19.9673C17.0123 20.3448 16.5411 20.5798 16.0343 20.5798C15.5191 20.5798 15.0409 20.3371 14.7304 19.9488C14.9863 19.8485 15.1679 19.599 15.1679 19.308V19.1973C15.4754 19.3193 15.7672 19.3838 16 19.3838C16.2328 19.3838 16.5247 19.3193 16.8321 19.1973V19.308C16.8321 19.6189 17.0394 19.8823 17.3231 19.9673ZM28.1007 10.8106C28.2861 10.8106 28.4369 10.9614 28.4369 11.1467V11.2348C28.4369 11.6621 28.1748 12.0293 27.8029 12.1841C27.9366 10.3678 27.8961 10.9181 27.904 10.8106H28.1007ZM21.3531 7.16295C21.9831 6.48477 22.8399 6.11127 23.7656 6.11127C25.6483 6.11127 27.1351 7.67789 27.0559 9.54014C26.873 9.22502 26.7933 9.0067 26.6749 8.70802C26.4878 8.2357 26.0809 7.88395 25.5866 7.76702C25.0921 7.65002 24.5709 7.78227 24.192 8.12058L23.7657 8.5012L23.3394 8.12058C22.9605 7.7822 22.4393 7.65008 21.9447 7.76702C21.4504 7.88395 21.0436 8.23577 20.8564 8.70802C20.7373 9.00864 20.6592 9.22364 20.4754 9.54014C20.4376 8.6557 20.7472 7.81514 21.3531 7.16295ZM19.0944 11.2348V11.1467C19.0944 10.9614 19.2452 10.8106 19.4306 10.8106H19.6273C19.6614 11.2766 19.6536 11.1691 19.7284 12.1841C19.3565 12.0293 19.0944 11.6621 19.0944 11.2348ZM20.7372 13.1193C20.6769 12.2994 20.6367 11.7533 20.5784 10.9619C21.0306 10.4793 21.3834 9.92283 21.6281 9.30545L21.7279 9.05345C21.8859 8.65483 22.3926 8.53214 22.7149 8.81995L23.1929 9.24683C23.5195 9.53845 24.0119 9.53845 24.3382 9.24683L24.8163 8.81995C25.1369 8.5337 25.6444 8.65252 25.8033 9.05345L25.9032 9.30545C26.1479 9.92283 26.5006 10.4793 26.9529 10.9619C26.8938 11.7638 26.8531 12.3168 26.794 13.1193C26.7341 13.9322 26.1372 14.641 25.4512 15.123C25.4268 15.1367 25.4038 15.1526 25.3824 15.1703C24.8097 15.5569 24.1859 15.7851 23.7656 15.7851C23.3454 15.7851 22.7218 15.557 22.149 15.1705C22.1275 15.1526 22.1044 15.1366 22.0798 15.1228C21.3939 14.6408 20.7971 13.9321 20.7372 13.1193ZM23.8161 18.9271C22.8674 18.9271 21.9966 18.4142 21.5206 17.6242C21.9748 17.6242 22.3186 17.26 22.3186 16.8325V16.3391C22.8501 16.5887 23.3692 16.7225 23.7656 16.7225C24.1621 16.7225 24.6811 16.5887 25.2126 16.3391V16.8325C25.2126 17.269 25.5678 17.6242 26.0044 17.6242H26.1114C25.6354 18.4141 24.7647 18.9271 23.8161 18.9271Z" fill="#2F9AAA"/>
</g>
<defs>
<clipPath id="clip0">
<rect width="32" height="32" fill="white"/>
</clipPath>
</defs>
</svg>
