<svg width="60" height="60" viewBox="0 0 60 60" fill="none" xmlns="http://www.w3.org/2000/svg">
<g clip-path="url(#clip0)">
<path d="M59.0591 51.5912H55.1225V48.4527C56.1592 48.4322 57.1281 48.3239 57.9432 47.7576C59.0643 46.9787 59.5864 45.538 59.5864 43.2238C59.5864 40.6512 58.7411 37.6527 57.5033 35.5536C59.1147 33.9103 60 31.7517 60 29.4373C60 25.1132 56.7886 21.403 52.5209 20.782C51.8932 19.4903 50.8805 18.4198 49.6335 17.7179C49.1297 13.2943 45.4144 9.9715 40.9444 9.9715C39.7852 9.9715 38.6647 10.195 37.6071 10.6328C36.6989 8.96474 35.7547 8.14501 34.7505 8.14501C33.7324 8.14501 32.7902 8.97459 31.8705 10.6812C31.1399 12.0368 30.422 13.9588 29.7942 16.2389C29.3626 17.807 28.9888 19.4915 28.6793 21.2241C27.1218 20.3083 25.3612 19.8279 23.5246 19.8279C22.9862 19.8279 22.4552 19.8704 21.9352 19.9524V13.3055C21.9352 10.3611 20.0761 7.70814 17.3089 6.70396C16.8527 6.53837 16.3486 6.77404 16.1829 7.23025C16.0173 7.68658 16.253 8.1906 16.7093 8.35619C18.7836 9.10912 20.1773 11.0979 20.1773 13.3054V20.3937C18.4779 20.9841 16.9643 22.0136 15.7925 23.3718V21.9363L17.4816 20.2473C17.8248 19.904 17.8248 19.3476 17.4816 19.0043C17.1383 18.6612 16.5818 18.6612 16.2387 19.0043L15.7925 19.4504V14.0938C15.7925 13.6083 15.399 13.2149 14.9136 13.2149C14.4282 13.2149 14.0347 13.6083 14.0347 14.0938V15.4081L13.1483 14.5217C12.8051 14.1785 12.2486 14.1785 11.9054 14.5217C11.5622 14.865 11.5622 15.4214 11.9054 15.7647L14.0348 17.8941V24.7098C12.753 22.8624 11.2457 21.5024 9.65004 21.3361V13.3055C9.65004 11.1056 11.0371 9.11884 13.1017 8.36193C13.5574 8.19482 13.7913 7.68998 13.6242 7.23412C13.4571 6.77837 12.9524 6.54494 12.4964 6.71146C9.7425 7.72126 7.89211 10.3711 7.89211 13.3055V21.6455C6.19652 22.4064 4.46285 24.4661 2.97117 27.5506C1.14949 31.3169 0.0621094 35.9387 0.0621094 39.9138C0.0621094 43.9836 0.937266 46.4874 2.81613 47.7927C4.35832 48.8643 6.33211 48.961 8.44336 48.9687V51.5912H0.878906C0.393516 51.5912 0 51.9846 0 52.4701C0 52.9556 0.393516 53.349 0.878906 53.349H59.0591C59.5446 53.349 59.938 52.9556 59.938 52.4701C59.938 51.9846 59.5445 51.5912 59.0591 51.5912ZM16.6983 47.0234C17.3106 47.1156 17.9569 47.14 18.6227 47.1461V51.5913H15.7923V47.8205C16.1153 47.5998 16.4182 47.3367 16.6983 47.0234ZM20.3807 47.1462C21.1713 47.1393 21.9345 47.1068 22.6455 46.9645V51.5912H20.3807V47.1462ZM29.6331 41.8761C30.4651 42.8918 31.4773 43.2799 32.5444 43.4288C31.4384 44.1322 30.155 44.5096 28.8064 44.5096C27.8527 44.5096 26.9355 44.3218 26.073 43.9539C26.411 42.9729 26.5745 41.7421 26.5745 40.2269C26.5745 40.0778 26.5711 39.9271 26.5672 39.7764C27.1758 39.5867 27.7623 39.3392 28.3236 39.0393C28.6373 40.2603 29.0701 41.1888 29.6331 41.8761ZM24.4407 46.2378C24.737 46.032 25.0004 45.7882 25.2332 45.5056C26.2789 45.9754 27.39 46.2303 28.5454 46.2635V51.5912H24.4035L24.4407 46.2378ZM30.303 46.1387C31.5942 45.9183 32.8072 45.4135 33.8715 44.6531V51.5912H30.303V46.1387ZM35.6293 43.5183C36.3146 43.5077 36.9984 43.4645 37.6497 43.2929V51.5912H35.6293V43.5183ZM41.3257 42.3861V51.5912H39.4076V42.3595C39.5661 42.2165 39.72 42.0566 39.8679 41.8761C40.0425 41.663 40.2045 41.4261 40.3545 41.1652C40.6376 41.5911 40.9618 42.0358 41.3257 42.3861ZM43.0835 43.567C43.7775 43.9106 44.5325 44.1416 45.3224 44.2405V51.5912H43.0835V43.567ZM47.0802 44.2401C47.7113 44.1608 48.327 43.9967 48.9115 43.7521C48.9877 45.7587 49.511 47.04 50.5439 47.7576C51.3591 48.3239 52.3286 48.4355 53.3646 48.4546V51.5911H47.0801V44.2401H47.0802ZM56.9403 46.314C56.5175 46.6077 55.8782 46.68 55.1225 46.6961V45.1033C55.1388 45.0892 55.1552 45.0752 55.1707 45.0598L56.5663 43.6642C56.9095 43.3208 56.9095 42.7644 56.5663 42.4212C56.2229 42.0781 55.6665 42.0781 55.3233 42.4212L55.1225 42.6219V40.1136C55.1225 39.6281 54.7291 39.2347 54.2436 39.2347C53.7581 39.2347 53.3647 39.6281 53.3647 40.1136V46.6963C52.6082 46.6802 51.9698 46.6081 51.5469 46.3142C50.949 45.8987 50.6584 44.888 50.6584 43.2239C50.6584 41.2999 51.1874 39.0576 52.0733 37.2254C52.9751 35.361 53.883 34.6662 54.2436 34.6662C54.6042 34.6662 55.5121 35.361 56.4138 37.2254C57.2999 39.0576 57.8287 41.2999 57.8287 43.2239C57.8287 44.8879 57.5381 45.8986 56.9403 46.314ZM58.2422 29.4373C58.2422 31.1858 57.6091 32.8229 56.452 34.1063C55.7633 33.3591 55.0097 32.9083 54.2436 32.9083C53.8992 32.9083 53.5574 32.9993 53.2228 33.1674V23.8401C53.2228 23.4529 53.19 23.0734 53.1294 22.7031C56.1 23.5321 58.2422 26.2798 58.2422 29.4373ZM41.0545 22.6126C41.6834 20.3432 43.8431 18.5763 46.2013 18.5763C49.1038 18.5763 51.465 20.9376 51.465 23.8401V34.8113C50.2191 36.5494 49.2687 39.2241 48.9867 41.7424C48.9825 41.7449 48.9782 41.7469 48.9741 41.7495C48.3937 42.1099 47.7503 42.3486 47.0802 42.4616V37.3065L48.7692 35.6175C49.1125 35.2742 49.1125 34.7177 48.7692 34.3745C48.4259 34.0314 47.8695 34.0314 47.5262 34.3745L47.0802 34.8205V29.464C47.0802 28.9785 46.6868 28.5851 46.2013 28.5851C45.7158 28.5851 45.3224 28.9785 45.3224 29.464V30.7783L44.4361 29.8918C44.0928 29.5486 43.5363 29.5485 43.1932 29.8917C42.8498 30.235 42.8498 30.7915 43.1931 31.1346L45.3225 33.2642V42.4642C43.4292 42.1456 41.8339 40.8127 41.209 38.9479C41.2075 38.9433 41.2053 38.9392 41.2038 38.9346C41.6257 37.2342 41.8233 34.9783 41.8233 32.0268C41.8233 29.0502 41.5507 25.7862 41.0545 22.6126ZM34.7504 9.90294C34.9555 9.90294 35.9804 10.6401 37.248 14.2464C37.4089 14.7042 37.9102 14.9452 38.3687 14.784C38.8266 14.6231 39.0674 14.1215 38.9064 13.6634C38.7245 13.1461 38.5416 12.6672 38.3575 12.2236C39.1784 11.8957 40.0466 11.7293 40.9444 11.7293C44.1947 11.7293 46.946 13.9272 47.7184 16.9854C47.2295 16.8772 46.7223 16.8185 46.2013 16.8185C43.9182 16.8185 41.827 17.9333 40.5307 19.7022C40.398 19.0551 40.2572 18.4163 40.1064 17.7911C39.9925 17.3193 39.5179 17.0288 39.0458 17.1428C38.574 17.2567 38.2837 17.7314 38.3975 18.2033C39.4575 22.5976 40.0653 27.6361 40.0653 32.0268C40.0653 36.6256 39.5559 39.4828 38.5079 40.762C37.8338 41.5851 36.9749 41.7343 35.6293 41.7591V37.2599L38.4806 34.4086C38.8239 34.0652 38.8239 33.5088 38.4806 33.1656C38.1373 32.8225 37.5809 32.8225 37.2376 33.1656L35.6293 34.7739V27.449C35.6293 26.9635 35.2359 26.5701 34.7504 26.5701C34.2649 26.5701 33.8715 26.9635 33.8715 27.449V29.2863L32.6215 28.0363C32.2781 27.6932 31.7217 27.6932 31.3785 28.0363C31.0352 28.3797 31.0352 28.9361 31.3785 29.2793L33.8688 31.7697C33.8698 31.7706 33.8707 31.7713 33.8715 31.7721V41.7591C32.526 41.7343 31.667 41.5849 30.9929 40.762C29.9449 39.4828 29.4355 36.6256 29.4355 32.0268C29.4355 27.1038 30.2032 21.3762 31.4889 16.7054C33.0282 11.1134 34.4749 9.90294 34.7504 9.90294ZM23.5245 21.5857C25.2773 21.5857 26.9463 22.1138 28.3698 23.1138C27.9236 26.1216 27.6777 29.2028 27.6777 32.0269C27.6777 34.0761 27.7732 35.7894 27.9725 37.2153C27.4852 37.5181 26.9708 37.7684 26.4348 37.9649C26.1516 35.5972 25.4457 33.1495 24.4034 30.9933V28.8624L26.2556 27.0101C26.5989 26.6668 26.5989 26.1104 26.2556 25.7672C25.9124 25.4241 25.3559 25.424 25.0127 25.7673L24.4035 26.3766V25.362C24.4035 24.8765 24.01 24.4831 23.5246 24.4831C23.0392 24.4831 22.6457 24.8765 22.6457 25.362V28.1649C21.6224 26.9271 20.5372 26.2544 19.5019 26.2544C18.2577 26.2544 17.0967 27.1664 16.102 28.4854C15.9243 28.0791 15.7355 27.675 15.537 27.277C16.7111 23.8727 19.9206 21.5857 23.5245 21.5857ZM3.81914 46.3492C2.96086 45.7528 1.81992 44.437 1.81992 39.9138C1.81992 36.1908 2.8418 31.8551 4.55355 28.3158C6.09316 25.1323 7.965 23.0752 9.32238 23.0752C10.7414 23.0752 13.1277 25.5601 14.9511 30.3092C14.4 31.339 13.9351 32.4539 13.5809 33.5128C13.4269 33.9731 13.6752 34.4712 14.1355 34.6251C14.5958 34.7795 15.0939 34.5307 15.2479 34.0704C16.4996 30.3284 18.4305 28.0122 19.5016 28.0122C20.2276 28.0122 21.5755 29.1836 22.8193 31.7555C24.07 34.3415 24.8166 37.5083 24.8166 40.2267C24.8166 42.6554 24.3655 44.1495 23.4376 44.7941C22.7095 45.2999 21.6354 45.3754 20.3805 45.3877V42.7L23.2318 39.8487C23.5751 39.5053 23.5751 38.9489 23.2318 38.6057C22.8886 38.2626 22.3321 38.2626 21.9889 38.6057L20.3805 40.2141V35.9112C20.3805 35.4257 19.987 35.0323 19.5016 35.0323C19.0163 35.0323 18.6227 35.4257 18.6227 35.9112V45.3884C17.3677 45.3769 16.2937 45.3001 15.5657 44.7942C14.6378 44.1496 14.1867 42.6556 14.1867 40.2269C14.1867 39.5163 14.2364 38.7717 14.3345 38.0136C14.3967 37.5324 14.057 37.0916 13.5756 37.0293C13.0941 36.9677 12.6534 37.3068 12.5912 37.7883C12.4835 38.6208 12.4289 39.4412 12.4289 40.227C12.4289 43.3165 13.107 45.2265 14.5627 46.238C14.634 46.2876 14.7069 46.3333 14.7804 46.3776C13.6614 47.129 12.0912 47.2028 10.2012 47.2105V38.0332L11.5507 36.6837C11.8939 36.3403 11.8939 35.7839 11.5507 35.4407C11.2075 35.0976 10.6509 35.0976 10.3078 35.4407L10.2012 35.5473V33.1277C10.2012 32.6422 9.80766 32.2488 9.32227 32.2488C8.83687 32.2488 8.44336 32.6422 8.44336 33.1277V40.6461L7.33676 39.5395C6.99352 39.1964 6.43699 39.1964 6.09387 39.5395C5.75063 39.8829 5.75063 40.4393 6.09387 40.7826L8.31926 43.0079C8.35805 43.0467 8.39988 43.0805 8.44348 43.1105V47.2108C6.55969 47.2033 4.93863 47.1267 3.81914 46.3492ZM10.2012 48.9682C11.5579 48.9626 12.8655 48.9201 14.0345 48.6053V51.5912H10.2012V48.9682Z" fill="#2F9AAA"/>
</g>
<defs>
<clipPath id="clip0">
<rect width="60" height="60" fill="white"/>
</clipPath>
</defs>
</svg>
