<svg width="29" height="29" viewBox="0 0 29 29" fill="none" xmlns="http://www.w3.org/2000/svg">
<g clip-path="url(#clip0)">
<path d="M26.2434 10.7974C26.6843 5.91795 22.8513 2.26379 18.4491 2.26379C16.465 2.26379 14.5778 2.9978 13.1388 4.30464C11.6998 2.9978 9.81251 2.26379 7.82849 2.26379C1.67452 2.26379 -2.84296 9.14406 2.11644 15.9945C3.2066 17.5004 4.71624 18.9596 6.60328 20.3315C9.77507 22.6375 12.9019 23.8996 13.0334 23.9523C13.2647 24.0447 13.5035 24.0388 13.7543 23.9322C16.1181 25.6439 18.4455 26.5926 18.6425 26.6714C18.8576 26.7574 19.1033 26.7597 19.3266 26.6669C19.4241 26.6264 21.7389 25.656 24.0828 23.8864C25.4821 22.8299 26.6028 21.7045 27.4135 20.5416C30.0335 16.7831 29.2457 12.7651 26.2434 10.7974ZM7.82849 4.07657C9.61668 4.07657 11.301 4.84779 12.4496 6.19253C12.8112 6.61587 13.4663 6.61598 13.828 6.19253C14.9765 4.84785 16.6609 4.07657 18.4491 4.07657C21.7482 4.07657 24.4852 6.70537 24.468 9.9998C22.5493 9.48067 20.4082 9.89381 18.8037 11.2606C17.6912 10.3129 16.2664 9.7834 14.772 9.7834C9.98682 9.7834 6.37295 15.1488 10.2354 20.5253C-2.8982 12.9203 1.76777 4.07657 7.82849 4.07657ZM18.9719 24.8399C15.3098 23.2034 10.4196 19.8869 10.4196 15.8512C10.4196 13.505 12.3721 11.5962 14.772 11.5962C16.0657 11.5962 17.284 12.1539 18.1144 13.1263C18.4761 13.5497 19.1312 13.5498 19.4929 13.1263C20.3234 12.1539 21.5417 11.5962 22.8354 11.5962C25.2353 11.5962 27.1878 13.505 27.1878 15.8512C27.1878 20.7247 20.5644 24.0993 18.9719 24.8399Z" fill="#2F9AAA"/>
</g>
<defs>
<clipPath id="clip0">
<rect width="29" height="29" fill="white"/>
</clipPath>
</defs>
</svg>
