<svg width="36" height="36" viewBox="0 0 36 36" fill="none" xmlns="http://www.w3.org/2000/svg">
<path d="M29.25 29.8125C30.1804 29.8125 30.9375 30.5696 30.9375 31.5C30.9375 32.4304 30.1804 33.1875 29.25 33.1875C28.3196 33.1875 27.5625 32.4304 27.5625 31.5C27.5625 30.5696 28.3196 29.8125 29.25 29.8125ZM29.25 32.0625C29.5599 32.0625 29.8125 31.8105 29.8125 31.5C29.8125 31.1895 29.5599 30.9375 29.25 30.9375C28.9401 30.9375 28.6875 31.1895 28.6875 31.5C28.6875 31.8105 28.9401 32.0625 29.25 32.0625Z" fill="#2F9AAA"/>
<path d="M9.5625 33.1875C8.63212 33.1875 7.875 32.4304 7.875 31.5C7.875 30.5696 8.63212 29.8125 9.5625 29.8125C10.4929 29.8125 11.25 30.5696 11.25 31.5C11.25 32.4304 10.4929 33.1875 9.5625 33.1875ZM9.5625 30.9375C9.25256 30.9375 9 31.1895 9 31.5C9 31.8105 9.25256 32.0625 9.5625 32.0625C9.87244 32.0625 10.125 31.8105 10.125 31.5C10.125 31.1895 9.87244 30.9375 9.5625 30.9375Z" fill="#2F9AAA"/>
<path d="M1.6875 14.0625C1.06706 14.0625 0.5625 13.5579 0.5625 12.9375V11.8125C0.5625 11.1921 1.06706 10.6875 1.6875 10.6875H2.25V9.5625C2.25 8.94206 2.75456 8.4375 3.375 8.4375H21.9375C22.5579 8.4375 23.0625 8.94206 23.0625 9.5625V9.63506C26.4133 10.161 29.1712 12.5055 30.2231 15.75H32.0625C32.6829 15.75 33.1875 16.2546 33.1875 16.875V19.125H32.0625V16.875H30.4043L30.7806 22.0219L33.3073 22.6536C34.5617 22.9669 35.4375 24.0885 35.4375 25.3817V29.8125C35.4375 30.4329 34.9329 30.9375 34.3125 30.9375H33.1425C33.1689 31.122 33.1875 31.3088 33.1875 31.5C33.1875 32.6014 32.7319 33.597 32.0001 34.3125H35.4375V35.4375H16.875V34.3125H26.4999C26.1698 33.9896 25.8992 33.6088 25.6984 33.1875H19.1722C18.5259 33.1875 18 32.6829 18 32.0625V28.6875H12.3126C13.0444 29.403 13.5 30.3986 13.5 31.5C13.5 32.6014 13.0444 33.597 12.3126 34.3125H13.5V35.4375H0.5625V34.3125H6.81244C6.08063 33.597 5.625 32.6014 5.625 31.5C5.625 30.3986 6.08063 29.403 6.81244 28.6875H5.625V31.5V33.1875H4.5V28.6875H3.375C2.75456 28.6875 2.25 28.1829 2.25 27.5625V23.0625H1.6875C1.06706 23.0625 0.5625 22.5579 0.5625 21.9375V20.8125C0.5625 20.1921 1.06706 19.6875 1.6875 19.6875H2.25V18.5625H1.6875C1.06706 18.5625 0.5625 18.0579 0.5625 17.4375V16.3125C0.5625 15.6921 1.06706 15.1875 1.6875 15.1875H2.25V14.0625H1.6875ZM1.6875 11.8125V12.9375H2.25V11.8125H1.6875ZM15.1875 20.8125V19.6875H14.0625V18.5625H15.1875V17.4375H14.0625V16.3125H15.1875V15.1875H11.8125V23.0625H15.1875V21.9375H14.0625V20.8125H15.1875ZM9.5625 18.5625H10.6875V15.1875H9.5625V18.5625ZM10.6875 19.6875H9.5625V23.0625H10.6875V19.6875ZM9.5625 14.0625H15.1875C15.8079 14.0625 16.3125 14.5671 16.3125 15.1875V16.3125H17.4375V17.4375H16.3125V18.5625H17.4375V19.6875H16.3125V20.8125H17.4375V21.9375H16.3125V23.0625H19.6875V11.8125H3.375V23.0625H8.4375V15.1875C8.4375 14.5671 8.94206 14.0625 9.5625 14.0625ZM3.375 9.5625V10.6875H20.8125V24.1875H3.375V25.3125H21.9375V9.5625H3.375ZM23.0625 10.7719V15.75H29.0351C28.0575 13.1456 25.7963 11.2635 23.0625 10.7719ZM23.0625 16.875V27.5625H24.1875V19.6875C24.1875 18.7571 24.9446 18 25.875 18H29.3692L29.2888 16.875H23.0625ZM29.4491 19.125H25.875C25.5651 19.125 25.3125 19.377 25.3125 19.6875V20.8125H29.5701L29.4491 19.125ZM33.75 26.4375C33.4401 26.4375 33.1875 26.6895 33.1875 27C33.1875 27.3105 33.4401 27.5625 33.75 27.5625H34.3125V26.4375H33.75ZM34.3125 29.8125V28.6875H33.75C32.8196 28.6875 32.0625 27.9304 32.0625 27C32.0625 26.0696 32.8196 25.3125 33.75 25.3125H34.3069C34.2765 24.5666 33.7641 23.9271 33.0345 23.7443L30.8672 23.2026L30.9364 24.1476L29.8142 24.228L29.6505 21.9375H25.3125V24.1875H26.4375V25.3125H25.3125V27.5625H29.25C30.8166 27.5625 32.1688 28.4844 32.8022 29.8125H34.3125ZM29.25 34.3125C30.8008 34.3125 32.0625 33.0508 32.0625 31.5C32.0625 29.9492 30.8008 28.6875 29.25 28.6875C27.6992 28.6875 26.4375 29.9492 26.4375 31.5C26.4375 33.0508 27.6992 34.3125 29.25 34.3125ZM25.3575 30.9375H24.1875V32.0625H25.3575C25.3311 31.878 25.3125 31.6912 25.3125 31.5C25.3125 31.3088 25.3311 31.122 25.3575 30.9375ZM21.375 30.9375V32.0625H23.0625V30.9375H21.375ZM20.25 32.0625V30.9375H19.1588L19.1722 32.0625H20.25ZM19.1453 29.8125H25.6978C25.8986 29.3912 26.1698 29.0104 26.4994 28.6875H19.1312L19.1453 29.8125ZM6.75 31.5C6.75 33.0508 8.01169 34.3125 9.5625 34.3125C11.1133 34.3125 12.375 33.0508 12.375 31.5C12.375 29.9492 11.1133 28.6875 9.5625 28.6875C8.01169 28.6875 6.75 29.9492 6.75 31.5ZM21.9375 27.5625V26.4375H3.375V27.5625H21.9375ZM1.6875 20.8125V21.9375H2.25V20.8125H1.6875ZM1.6875 16.3125V17.4375H2.25V16.3125H1.6875Z" fill="#2F9AAA"/>
<path d="M15.75 34.3125H14.625V35.4375H15.75V34.3125Z" fill="#2F9AAA"/>
</svg>
