<svg width="34" height="34" viewBox="0 0 34 34" fill="none" xmlns="http://www.w3.org/2000/svg">
<path d="M33.3359 17.4524H31.661C31.4563 17.4524 31.2631 17.5468 31.1373 17.7082L30.1272 19.0033C29.9015 19.2926 29.9531 19.7097 30.2423 19.9354C30.3637 20.03 30.5074 20.0757 30.6504 20.0757C30.848 20.0757 31.0434 19.988 31.1743 19.8202L31.9852 18.7808H33.3359C33.7027 18.7808 34 18.4835 34 18.1167C34 17.7499 33.7027 17.4524 33.3359 17.4524Z" fill="#2F9AAA"/>
<path d="M27.9259 22.905C27.6367 22.6796 27.2196 22.7309 26.9939 23.0201L26.06 24.2175H23.1527L20.8305 16.2612C21.5076 16.0037 21.9898 15.3481 21.9898 14.5819C21.9898 13.5915 21.1841 12.7855 20.1935 12.7855H19.816L19.3349 11.1365C19.2319 10.7845 18.863 10.5825 18.5113 10.6852C18.1593 10.7879 17.9572 11.1565 18.0599 11.5085L18.4327 12.7855H18.0786L15.6114 10.431C15.6638 10.398 15.716 10.3641 15.7668 10.328C16.469 9.83099 16.9354 9.0904 17.0802 8.24242C17.2252 7.39471 17.0311 6.54128 16.5341 5.83935C16.0371 5.13715 15.2965 4.67101 14.4485 4.52601C12.6984 4.22666 11.0312 5.40745 10.7321 7.15761C10.5516 8.21337 10.9103 9.23878 11.6073 9.95212C11.4224 10.039 11.2486 10.1402 11.087 10.2543C10.7757 9.60375 10.1736 9.10726 9.4232 8.97263C8.82658 8.86576 8.22451 8.99961 7.7275 9.35006C7.2196 9.70829 6.88264 10.2473 6.7794 10.8678C6.71299 11.266 6.75113 11.6587 6.87356 12.0167C6.84114 12.0322 6.80975 12.0496 6.78018 12.0704C6.63543 12.1715 6.53686 12.3264 6.50651 12.5007L5.57345 17.8578C5.40562 18.8228 6.02688 19.7439 6.95839 19.9107L8.07666 20.1112C8.17756 20.1294 8.27769 20.1382 8.37678 20.1382C8.45123 20.1382 8.52438 20.1317 8.59675 20.1221L8.38975 23.3003L6.7781 26.6245C6.62532 26.9402 6.54776 27.2777 6.54776 27.6271C6.54776 27.9677 6.62558 28.2984 6.76565 28.5983H5.99472C5.86813 28.5983 5.74414 28.6346 5.63752 28.7025L0.307125 32.1017C-0.00207885 32.2989 -0.0928687 32.7095 0.104275 33.0187C0.230862 33.2171 0.445645 33.3258 0.664837 33.3258C0.787014 33.3258 0.910488 33.2921 1.02125 33.2215L6.18823 29.9264H8.71685C8.76017 29.929 8.80323 29.9303 8.84629 29.9303C8.88209 29.9303 8.91763 29.9282 8.95317 29.9264H16.0337C16.2039 29.9264 16.3676 29.861 16.4911 29.7438L20.9094 25.5459H22.6505H22.6544H22.6567H26.3843C26.5887 25.5459 26.7819 25.4515 26.9078 25.2901L28.0411 23.8373C28.2668 23.5478 28.2151 23.1306 27.9259 22.905ZM11.3121 20.4622C11.0551 20.4181 10.7705 20.3992 10.5368 20.2762C10.1236 20.0586 9.91398 19.5974 9.99051 19.1432C10.0118 19.0174 10.0336 18.8913 10.0551 18.7655C11.9814 18.676 13.3253 18.1344 14.2257 17.5564L14.0701 18.4674C14.0203 18.7593 14.1697 19.049 14.4364 19.1777L16.8003 20.3167L19.547 23.7841C19.8806 24.2053 19.8096 24.8193 19.3883 25.1529C18.9673 25.4865 18.3533 25.4152 18.0197 24.9942L15.6457 21.9976C15.5834 21.9187 15.5038 21.8552 15.4135 21.8116L13.4128 20.8474C13.3567 20.8204 13.2973 20.8015 13.2364 20.7911L11.3121 20.4622ZM20.588 22.9594L17.746 19.3717C17.6993 19.3131 17.6436 19.2633 17.5813 19.2238C17.5595 19.2101 17.5364 19.1971 17.5126 19.1857L15.4636 18.1982L15.7746 16.3782H19.4812L21.7691 24.2175H21.0785C21.0461 23.7734 20.885 23.334 20.588 22.9594ZM17.8127 14.1137H19.3138C19.3151 14.1137 19.3164 14.1139 19.3177 14.1139C19.3185 14.1139 19.3193 14.1137 19.3201 14.1137H20.1935C20.4518 14.1137 20.6617 14.3238 20.6617 14.5819C20.6617 14.84 20.4518 15.0501 20.1935 15.0501H19.9916C19.9909 15.0501 19.9901 15.0501 19.9896 15.0501H15.461L14.1183 13.8929C13.8403 13.6538 13.4211 13.6849 13.1816 13.9627C12.9422 14.2405 12.9733 14.6597 13.2512 14.8991L14.3015 15.8042C13.7759 16.3499 12.5767 17.249 10.2849 17.4213L10.529 15.9933L10.9902 13.296C10.9905 13.2942 10.9905 13.2924 10.9907 13.2906L11.1275 12.4906C11.26 11.7158 11.921 10.902 13.3759 10.902C13.4094 10.902 13.4431 10.9026 13.4776 10.9033C13.4831 10.9036 13.4888 10.9036 13.4942 10.9036C13.9497 10.9036 14.3591 11.0608 14.6462 11.3459C14.6548 11.3544 14.6636 11.3627 14.6724 11.3708L17.3541 13.93C17.4778 14.048 17.642 14.1137 17.8127 14.1137ZM12.0413 7.38122C12.1988 6.46035 13.0006 5.80796 13.9051 5.80796C14.0107 5.80796 14.1175 5.81678 14.2249 5.8352C14.723 5.92028 15.158 6.19421 15.4501 6.60665C15.7422 7.0191 15.8563 7.52077 15.771 8.01882C15.6138 8.93969 14.8117 9.59234 13.9072 9.59208C13.8016 9.59208 13.6947 9.58326 13.5873 9.56484C12.5591 9.38923 11.8654 8.40948 12.0413 7.38122ZM8.08937 11.0862C8.13398 10.8185 8.27717 10.5874 8.49273 10.4354C8.65149 10.3236 8.83592 10.2652 9.02476 10.2652C9.07924 10.2652 9.13397 10.2701 9.1887 10.28C9.71424 10.3742 10.0675 10.8953 9.9765 11.4413C9.93188 11.709 9.78843 11.9402 9.57287 12.0922C9.36847 12.2364 9.12152 12.2914 8.87716 12.2478C8.35162 12.1534 7.99806 11.6323 8.08937 11.0862ZM8.31115 18.8041L7.19288 18.6034C6.97836 18.565 6.8388 18.3325 6.88186 18.0853L7.70027 13.3861L9.56976 13.7215L9.25459 15.5658L8.75239 18.5022C8.6865 18.7061 8.49714 18.8373 8.31115 18.8041ZM8.42503 28.5049C8.08625 28.3407 7.87588 28.0042 7.87588 27.6268C7.87588 27.4795 7.90882 27.3368 7.97342 27.2035L9.64135 23.7628C9.67897 23.6858 9.70102 23.602 9.70646 23.5164L9.84369 21.4119C10.3443 21.6988 10.9412 21.746 11.501 21.842C11.6063 21.8599 11.7116 21.878 11.8169 21.8959L11.6675 24.0494L9.7267 28.0533C9.57028 28.3757 9.25796 28.5723 8.92385 28.5983H8.77314C8.65538 28.5889 8.53761 28.5594 8.42503 28.5049ZM15.7684 28.5983H10.9384L12.9186 24.5132C12.9324 24.485 12.9438 24.4562 12.9534 24.4266C12.9694 24.3765 12.9798 24.3236 12.9837 24.2689L13.1282 22.1846L14.6994 22.9418L16.9787 25.8188C17.2407 26.1495 17.5761 26.3884 17.9434 26.5316L15.7684 28.5983Z" fill="#2F9AAA"/>
<path d="M25.789 9.34875H29.1866C30.5925 9.34875 31.7365 8.2048 31.7365 6.7986C31.7365 5.39265 30.5925 4.2487 29.1866 4.2487C28.847 4.2487 28.5129 4.31667 28.2034 4.44585C27.6354 3.70708 26.7485 3.25702 25.789 3.25702C24.1093 3.25702 22.7431 4.62328 22.7431 6.30289C22.7431 7.11636 23.0598 7.88133 23.6352 8.45668C24.2105 9.03203 24.9752 9.34875 25.789 9.34875ZM25.789 4.58514C26.4733 4.58514 27.0919 4.99084 27.3651 5.61911C27.4486 5.81132 27.618 5.95296 27.8221 6.00095C28.026 6.04868 28.2408 5.99757 28.4014 5.86269C28.6239 5.67566 28.8953 5.57683 29.1866 5.57683C29.8602 5.57683 30.4083 6.12494 30.4083 6.7986C30.4083 7.47252 29.8602 8.02063 29.1866 8.02063H25.789C25.3301 8.02063 24.8987 7.8419 24.5742 7.51739C24.2497 7.19315 24.0712 6.76176 24.0712 6.30289C24.0712 5.35556 24.8419 4.58514 25.789 4.58514Z" fill="#2F9AAA"/>
<path d="M4.01498 7.6741C5.35219 7.6741 6.44011 6.58618 6.44011 5.24898C6.44011 3.91177 5.35219 2.82385 4.01498 2.82385C3.36726 2.82385 2.75819 3.07599 2.30035 3.53409C1.84225 3.99219 1.58986 4.60126 1.58986 5.24898C1.58986 6.58618 2.67804 7.6741 4.01498 7.6741ZM3.23938 4.47337C3.44664 4.26611 3.72212 4.15198 4.01498 4.15198C4.6199 4.15198 5.11198 4.64406 5.11198 5.24898C5.11198 5.8539 4.6199 6.34598 4.01498 6.34598C3.41032 6.34598 2.91798 5.8539 2.91798 5.24898C2.91798 4.95586 3.03212 4.68037 3.23938 4.47337Z" fill="#2F9AAA"/>
<path d="M0.332037 3.90422L0.643576 4.08398C0.748114 4.14442 0.862509 4.17321 0.975088 4.17321C1.20466 4.17321 1.42774 4.05415 1.5507 3.84092C1.73409 3.52342 1.6254 3.1172 1.30764 2.9338L0.996099 2.75404C0.678594 2.57064 0.272375 2.67933 0.0889797 2.9971C-0.0941563 3.3146 0.0145321 3.72082 0.332037 3.90422Z" fill="#2F9AAA"/>
<path d="M7.69794 6.62326L7.3864 6.44349C7.06889 6.2601 6.66267 6.36878 6.47928 6.68655C6.29588 7.00405 6.40483 7.41027 6.72233 7.59367L7.03387 7.77343C7.13841 7.83387 7.25255 7.86267 7.36539 7.86267C7.59469 7.86267 7.81804 7.7436 7.94099 7.53038C8.12439 7.21287 8.01544 6.80665 7.69794 6.62326Z" fill="#2F9AAA"/>
<path d="M0.664846 7.86267C0.777426 7.86267 0.891821 7.83387 0.996359 7.77343L1.30764 7.59367C1.6254 7.41027 1.73409 7.00431 1.5507 6.68655C1.3673 6.36878 0.96134 6.2601 0.643576 6.44349L0.332037 6.62326C0.0145321 6.80665 -0.0941563 7.21287 0.0889797 7.53038C0.212194 7.7436 0.435278 7.86267 0.664846 7.86267Z" fill="#2F9AAA"/>
<path d="M7.05514 4.17322C7.16772 4.17322 7.28186 4.14442 7.3864 4.08424L7.69794 3.90422C8.0157 3.72082 8.12439 3.31486 7.94099 2.9971C7.7576 2.67959 7.35138 2.57065 7.03387 2.75404L6.72233 2.93381C6.40483 3.1172 6.29588 3.52342 6.47928 3.84118C6.60249 4.05415 6.82558 4.17322 7.05514 4.17322Z" fill="#2F9AAA"/>
<path d="M4.01498 2.43654C4.38177 2.43654 4.67905 2.13927 4.67905 1.77248V1.39453C4.67905 1.02774 4.38177 0.730469 4.01498 0.730469C3.64819 0.730469 3.35092 1.02774 3.35092 1.39453V1.77248C3.35092 2.13927 3.64819 2.43654 4.01498 2.43654Z" fill="#2F9AAA"/>
<path d="M3.35092 8.78717V9.16512C3.35092 9.53191 3.64819 9.82918 4.01498 9.82918C4.38177 9.82918 4.67905 9.53191 4.67905 9.16512V8.78717C4.67905 8.42038 4.38177 8.12311 4.01498 8.12311C3.64819 8.12311 3.35092 8.42064 3.35092 8.78717Z" fill="#2F9AAA"/>
<path d="M29.6338 21.1078C29.5266 20.8469 29.2543 20.6793 28.9731 20.6998C28.6971 20.7198 28.4587 20.9138 28.3824 21.1794C28.3059 21.4458 28.4086 21.74 28.6335 21.9016C28.8553 22.0606 29.1619 22.065 29.3886 21.9141C29.6493 21.741 29.7541 21.3966 29.6338 21.1078Z" fill="#2F9AAA"/>
</svg>
