<svg width="60" height="60" viewBox="0 0 60 60" fill="none" xmlns="http://www.w3.org/2000/svg">
<path d="M59.1211 40.4891H57.8039C56.8634 37.8667 54.3868 36.0883 51.5579 36.0883C50.1297 36.0883 48.791 36.5419 47.6943 37.3281C46.7114 36.703 45.5508 36.3462 44.3187 36.3462C43.1783 36.3462 42.0989 36.6519 41.1652 37.1931C40.0913 36.4072 38.7901 35.9292 37.3952 35.8647C37.7517 35.0289 37.9895 34.1317 38.0889 33.1942C39.7896 33.1309 41.1539 31.7281 41.1539 30.0119C41.1539 28.8962 40.5759 27.9147 39.705 27.3459C39.7085 27.3044 39.7114 27.2627 39.7114 27.2203V24.8634C39.7114 21.1422 37.8345 17.8488 34.971 15.8597C35.3236 15.4292 35.5356 14.8797 35.5356 14.2813V12.8805C35.5356 11.5046 34.4162 10.3853 33.0404 10.3853H24.2048C22.8291 10.3853 21.7097 11.5046 21.7097 12.8805V14.2813C21.7097 14.8796 21.9218 15.4292 22.2743 15.8597C19.4107 17.8488 17.5337 21.1422 17.5337 24.8634V27.2203C17.5337 27.2627 17.5365 27.3044 17.54 27.3459C16.6691 27.9149 16.0911 28.8963 16.0911 30.0119C16.0911 31.7283 17.4555 33.1309 19.1564 33.1942C19.2614 34.1867 19.524 35.1329 19.916 36.0102C19.4477 35.9106 18.964 35.8567 18.4693 35.8567C17.3978 35.8567 16.3751 36.1017 15.4588 36.543C14.0796 35.5063 12.3741 34.9031 10.5478 34.9031C7.00172 34.9031 3.90293 37.1674 2.78637 40.489H0.878906C0.393516 40.489 0 40.8824 0 41.3679C0 41.8534 0.393516 42.2468 0.878906 42.2468H20.1414C19.2137 43.4467 18.7289 44.9429 18.7289 46.6619V52.7198C15.9291 52.1136 15.06 51.4185 14.9648 51.2034C14.9537 50.7276 14.5645 50.3455 14.0862 50.3455C13.6008 50.3455 13.2073 50.7389 13.2073 51.2244C13.2073 52.6085 14.8243 53.6448 18.1511 54.3927C20.9579 55.0237 24.6768 55.3712 28.6226 55.3712C35.3495 55.3712 41.1811 54.3474 43.1336 52.8235C43.5163 52.5249 43.5844 51.9726 43.2857 51.59C42.9871 51.2073 42.4347 51.1394 42.0521 51.4379C41.4732 51.8897 40.2509 52.3435 38.5164 52.7192V46.6619C38.5164 44.9429 38.0316 43.4468 37.1038 42.2468H59.1211C59.6066 42.2468 60 41.8534 60 41.3679C60 40.8825 59.6066 40.4891 59.1211 40.4891ZM38.1418 28.7062H38.2257C38.314 28.7062 38.3999 28.6971 38.484 28.6822C39.0169 28.8895 39.3962 29.4067 39.3962 30.0119C39.3962 30.7404 38.8474 31.3421 38.1418 31.4279V28.7062ZM19.1036 31.4279C18.398 31.3421 17.8491 30.7404 17.8491 30.0119C17.8491 29.4067 18.2284 28.8895 18.7614 28.6822C18.8454 28.6971 18.9314 28.7062 19.0196 28.7062H19.1036V31.4279ZM24.2048 12.1429H33.0404C33.3853 12.1429 33.6748 12.3813 33.755 12.7017H28.0979C27.6125 12.7017 27.219 13.0951 27.219 13.5806C27.219 14.0661 27.6125 14.4595 28.0979 14.4595H33.755C33.675 14.7799 33.3855 15.0184 33.0404 15.0184H24.2048C23.7983 15.0184 23.4675 14.6877 23.4675 14.2812V12.8804C23.4675 12.4738 23.7983 12.1429 24.2048 12.1429ZM19.2915 26.9484V24.8633H19.2916C19.2916 21.3804 21.2524 18.3443 24.138 16.7729C24.1604 16.7735 24.1822 16.7762 24.2048 16.7762H33.0404C33.0629 16.7762 33.0847 16.7735 33.1071 16.7729C35.9927 18.3443 37.9536 21.3804 37.9536 24.8633V26.9484H34.3689L32.8208 24.2676C32.6638 23.9958 32.3737 23.8282 32.0597 23.8282C31.7456 23.8282 31.4556 23.9958 31.2986 24.2676L29.7506 26.9484H19.2915ZM36.384 28.7062V32.2023C36.384 36.4358 32.9024 39.8801 28.6228 39.8801C24.3431 39.8801 20.8614 36.4358 20.8614 32.2023V28.7062H29.9078C30.437 28.7062 30.9301 28.4215 31.1946 27.9631L32.0598 26.4648L32.9248 27.9627C33.1893 28.4212 33.6824 28.7062 34.2117 28.7062H36.384ZM11.9273 40.4891H4.67027C5.68934 38.1885 7.96816 36.661 10.5479 36.661C11.7579 36.661 12.9011 36.9982 13.8797 37.5924C13.0104 38.3604 12.3304 39.3487 11.9273 40.4891ZM13.8314 40.4891C14.6952 38.7531 16.4702 37.6146 18.4695 37.6146C20.3197 37.6146 21.9776 38.5903 22.8991 40.1121C22.6467 40.2279 22.4033 40.3533 22.1704 40.4891H13.8314ZM35.8636 53.1725V49.023C35.8636 48.5375 35.4702 48.1441 34.9847 48.1441C34.4992 48.1441 34.1058 48.5375 34.1058 49.023V53.3702C32.463 53.5236 30.6223 53.6135 28.6226 53.6135C26.7154 53.6135 24.8577 53.5285 23.1395 53.3686V49.023C23.1395 48.5375 22.746 48.1441 22.2606 48.1441C21.7752 48.1441 21.3817 48.5375 21.3817 49.023V53.1717C21.0775 53.1314 20.7778 53.0893 20.4867 53.044V46.6619C20.4867 44.7966 21.1766 43.3444 22.5373 42.3456C23.3345 41.7603 24.3391 41.3463 25.5036 41.1149C25.5941 41.1462 25.6843 41.1779 25.776 41.2064V42.333C25.776 42.8185 26.1695 43.2119 26.6549 43.2119C27.1403 43.2119 27.5338 42.8185 27.5338 42.333V41.574C27.8914 41.6147 28.2543 41.6376 28.6227 41.6376C28.991 41.6376 29.3537 41.6147 29.7113 41.5741V42.333C29.7113 42.8185 30.1048 43.2119 30.5902 43.2119C31.0757 43.2119 31.4691 42.8185 31.4691 42.333V41.2065C31.5608 41.1779 31.6511 41.146 31.7415 41.1149C32.9059 41.3463 33.9107 41.7603 34.7079 42.3456C36.0684 43.3442 36.7584 44.7966 36.7584 46.6619V53.0434H36.7586C36.4696 53.0887 36.1712 53.1317 35.8636 53.1725ZM35.0749 40.489C34.7429 40.2955 34.3902 40.1223 34.0189 39.9694C34.9347 39.3424 35.7333 38.5606 36.3786 37.6625C36.6057 37.6319 36.8363 37.6145 37.0706 37.6145C39.0698 37.6145 40.8448 38.753 41.7086 40.489H35.0749ZM45.312 40.4891H43.6127C43.3515 39.7501 42.9743 39.075 42.5043 38.4821C43.0632 38.2382 43.6777 38.104 44.3187 38.104C45.0505 38.104 45.7473 38.279 46.3664 38.5929C45.9207 39.1535 45.5621 39.7914 45.312 40.4891ZM47.2233 40.4891C48.0478 38.8903 49.7 37.8462 51.5579 37.8462C53.4158 37.8462 55.0679 38.8902 55.8925 40.4891H47.2233Z" fill="#2F9AAA"/>
<path d="M39.8871 57.9215C39.7973 57.4444 39.3377 57.13 38.8607 57.2206C35.7593 57.8047 32.2189 58.1135 28.6226 58.1135C23.0855 58.1135 17.892 57.4032 13.9987 56.1137C10.5114 54.9585 8.42941 53.4253 8.42941 52.0124C8.42941 51.5269 8.0359 51.1335 7.55051 51.1335C7.06512 51.1335 6.6716 51.5269 6.6716 52.0124C6.6716 54.3191 9.01418 56.3142 13.446 57.7822C17.5128 59.1294 22.9027 59.8713 28.6226 59.8713C32.3264 59.8713 35.9791 59.552 39.1862 58.9479C39.6632 58.858 39.977 58.3985 39.8871 57.9215Z" fill="#2F9AAA"/>
<path d="M42.8406 45.9437C42.3747 45.807 41.8865 46.0737 41.7497 46.5395C41.6129 47.0053 41.8797 47.4937 42.3455 47.6304C46.3365 48.8021 48.8159 50.4811 48.8159 52.0125C48.8159 53.4144 46.7593 54.939 43.3149 56.0909C42.8545 56.245 42.6061 56.7429 42.7601 57.2032C42.8832 57.5711 43.2259 57.8036 43.5935 57.8036C43.6859 57.8036 43.78 57.7889 43.8724 57.758C49.4112 55.9057 50.5738 53.6112 50.5738 52.0125C50.5738 49.5627 47.8274 47.4076 42.8406 45.9437Z" fill="#2F9AAA"/>
<path d="M30.8836 34.0554C30.3981 34.0554 30.0047 34.4488 30.0047 34.9343C30.0047 35.6843 29.3848 36.2945 28.6228 36.2945C27.8607 36.2945 27.2407 35.6843 27.2407 34.9343C27.2407 34.4488 26.8472 34.0554 26.3618 34.0554C25.8764 34.0554 25.4829 34.4488 25.4829 34.9343C25.4829 36.6536 26.8915 38.0523 28.6228 38.0523C30.354 38.0523 31.7625 36.6535 31.7625 34.9343C31.7625 34.4489 31.3691 34.0554 30.8836 34.0554Z" fill="#2F9AAA"/>
<path d="M29.2935 32.0691V31.5034C29.2935 31.0179 28.9 30.6245 28.4146 30.6245C27.9292 30.6245 27.5357 31.0179 27.5357 31.5034V32.5951C27.5357 33.2737 28.0876 33.8256 28.7661 33.8256H29.2471C29.7325 33.8256 30.126 33.4322 30.126 32.9467C30.126 32.4769 29.7573 32.0932 29.2935 32.0691Z" fill="#2F9AAA"/>
<path d="M26.3734 30.4383C26.0302 30.0952 25.4736 30.0952 25.1305 30.4383C24.7633 30.8057 24.1657 30.8057 23.7983 30.4383C23.4551 30.0949 22.8986 30.0951 22.5554 30.4384C22.2122 30.7817 22.2123 31.3382 22.5556 31.6813C23.0818 32.2076 23.7733 32.4707 24.4645 32.4707C25.1558 32.4707 25.8472 32.2075 26.3735 31.6813C26.7167 31.3381 26.7166 30.7817 26.3734 30.4383Z" fill="#2F9AAA"/>
<path d="M34.5318 30.4384C34.1888 30.0952 33.6322 30.0951 33.2889 30.4383C32.9217 30.8055 32.324 30.8055 31.9568 30.4383C31.6133 30.0948 31.0568 30.0952 30.7139 30.4384C30.3707 30.7818 30.3708 31.3383 30.714 31.6813C31.2403 32.2075 31.9316 32.4705 32.6229 32.4705C33.3142 32.4705 34.0055 32.2075 34.5318 31.6813C34.8749 31.3383 34.875 30.7818 34.5318 30.4384Z" fill="#2F9AAA"/>
<path d="M25.7027 49.9758C25.5387 49.8117 25.3125 49.718 25.0805 49.718C24.8496 49.718 24.6223 49.8117 24.4594 49.9758C24.2953 50.1397 24.2016 50.366 24.2016 50.5969C24.2016 50.8277 24.2953 51.0551 24.4594 51.218C24.6234 51.382 24.8496 51.4758 25.0805 51.4758C25.3125 51.4758 25.5387 51.382 25.7027 51.218C25.8656 51.0551 25.9594 50.829 25.9594 50.5969C25.9594 50.366 25.8656 50.1398 25.7027 49.9758Z" fill="#2F9AAA"/>
<path d="M32.7855 49.9758C32.6227 49.8117 32.3952 49.718 32.1645 49.718C31.9325 49.718 31.7063 49.8117 31.5434 49.9758C31.3793 50.1397 31.2856 50.366 31.2856 50.5969C31.2856 50.8289 31.3793 51.0551 31.5434 51.218C31.7063 51.382 31.9324 51.4758 32.1645 51.4758C32.3953 51.4758 32.6227 51.382 32.7855 51.218C32.9496 51.0551 33.0434 50.829 33.0434 50.5969C33.0434 50.366 32.9496 50.1398 32.7855 49.9758Z" fill="#2F9AAA"/>
<path d="M13.6683 19.3445H8.69849C8.2131 19.3445 7.81958 19.738 7.81958 20.2234C7.81958 20.7089 8.2131 21.1023 8.69849 21.1023H13.6683C14.3431 21.1023 14.892 21.6619 14.892 22.3495C14.892 23.0371 14.3429 23.5965 13.6683 23.5965H12.6563C12.1709 23.5965 11.7774 23.9899 11.7774 24.4754C11.7774 24.9609 12.1709 25.3543 12.6563 25.3543H13.6683C15.3123 25.3543 16.6498 24.0064 16.6498 22.3495C16.6498 20.6925 15.3122 19.3445 13.6683 19.3445Z" fill="#2F9AAA"/>
<path d="M10.7054 27.7514H7.26515C6.59038 27.7514 6.04147 27.192 6.04147 26.5044C6.04147 25.8168 6.59038 25.2575 7.26515 25.2575H8.44698C8.93237 25.2575 9.32589 24.8641 9.32589 24.3786C9.32589 23.8931 8.93237 23.4997 8.44698 23.4997H7.26515C5.62112 23.4997 4.28366 24.8476 4.28366 26.5044C4.28366 28.1613 5.62112 29.5092 7.26515 29.5092H10.7054C10.736 29.5092 10.7823 29.5527 10.7823 29.6182V31.7578C10.7823 32.2433 11.1758 32.6367 11.6612 32.6367C12.1466 32.6367 12.5401 32.2433 12.5401 31.7578V29.6182C12.5401 28.5889 11.7171 27.7514 10.7054 27.7514Z" fill="#2F9AAA"/>
<path d="M51.5898 22.0364H46.62C45.9454 22.0364 45.3966 21.4771 45.3966 20.7894C45.3966 20.1017 45.9455 19.5422 46.62 19.5422H50.7258C51.2112 19.5422 51.6047 19.1488 51.6047 18.6633C51.6047 18.1778 51.2112 17.7844 50.7258 17.7844H46.62C44.9761 17.7844 43.6388 19.1324 43.6388 20.7894C43.6388 22.4463 44.9761 23.7942 46.62 23.7942H51.5898C52.2646 23.7942 52.8135 24.3538 52.8135 25.0414C52.8135 25.729 52.2645 26.2884 51.5898 26.2884H50.3906C49.9051 26.2884 49.5117 26.6818 49.5117 27.1673C49.5117 27.6528 49.9051 28.0462 50.3906 28.0462H51.5898C53.2338 28.0462 54.5713 26.6983 54.5713 25.0414C54.5713 23.3844 53.2338 22.0364 51.5898 22.0364Z" fill="#2F9AAA"/>
<path d="M48.627 30.4432H45.1868C44.5119 30.4432 43.963 29.8839 43.963 29.1962C43.963 28.5087 44.512 27.9493 45.1868 27.9493H46.3685C46.854 27.9493 47.2474 27.5559 47.2474 27.0704C47.2474 26.5849 46.854 26.1915 46.3685 26.1915H45.1868C43.5428 26.1915 42.2052 27.5394 42.2052 29.1962C42.2052 30.8531 43.5428 32.201 45.1868 32.201H48.627C48.6577 32.201 48.7038 32.2445 48.7038 32.31V33.7238C48.7038 34.2093 49.0973 34.6027 49.5827 34.6027C50.0682 34.6027 50.4616 34.2093 50.4616 33.7238V32.31C50.4616 31.2807 49.6386 30.4432 48.627 30.4432Z" fill="#2F9AAA"/>
<path d="M16.8397 0.128662C15.3155 0.128662 14.0754 1.36897 14.0754 2.89358C14.0754 4.41819 15.3155 5.65839 16.8397 5.65839C18.364 5.65839 19.6039 4.41808 19.6039 2.89347C19.6039 1.36886 18.364 0.128662 16.8397 0.128662ZM16.8397 3.90069C16.2847 3.90069 15.8332 3.44894 15.8332 2.89358C15.8332 2.33823 16.2847 1.88647 16.8397 1.88647C17.3947 1.88647 17.8461 2.33823 17.8461 2.89358C17.8461 3.44894 17.3946 3.90069 16.8397 3.90069Z" fill="#2F9AAA"/>
<path d="M53.1036 3.77191C51.5794 3.77191 50.3394 5.01222 50.3394 6.53683C50.3395 8.06144 51.5795 9.30176 53.1036 9.30176C54.6279 9.30176 55.868 8.06144 55.868 6.53683C55.868 5.01222 54.6279 3.77191 53.1036 3.77191ZM53.1036 7.54406C52.5488 7.54406 52.0972 7.0923 52.0972 6.53695C52.0973 5.9816 52.5488 5.52984 53.1036 5.52984C53.6586 5.52984 54.1102 5.9816 54.1102 6.53695C54.1102 7.09219 53.6586 7.54406 53.1036 7.54406Z" fill="#2F9AAA"/>
<path d="M40.6734 6.12964C39.1492 6.12964 37.9092 7.37007 37.9092 8.89468C37.9092 10.4192 39.1492 11.6595 40.6734 11.6595C42.1977 11.6595 43.4378 10.4192 43.4378 8.89468C43.4378 7.37007 42.1977 6.12964 40.6734 6.12964ZM40.6734 9.90179C40.1185 9.90179 39.667 9.45015 39.667 8.89479C39.667 8.33933 40.1185 7.88757 40.6734 7.88757C41.2284 7.88757 41.68 8.33933 41.68 8.89479C41.68 9.45003 41.2284 9.90179 40.6734 9.90179Z" fill="#2F9AAA"/>
<path d="M6.20989 6.90118C4.68563 6.90118 3.44556 8.14161 3.44556 9.66622C3.44544 11.1907 4.68552 12.431 6.20989 12.431C7.73403 12.431 8.97399 11.1907 8.97399 9.66622C8.97399 8.14161 7.73403 6.90118 6.20989 6.90118ZM6.20989 10.6733C5.65489 10.6733 5.20337 10.2217 5.20337 9.66634C5.20325 9.11087 5.65478 8.65911 6.20989 8.65911C6.76477 8.65911 7.21618 9.11087 7.21618 9.66634C7.21618 10.2216 6.76477 10.6733 6.20989 10.6733Z" fill="#2F9AAA"/>
</svg>
