<svg width="30" height="30" viewBox="0 0 30 30" fill="none" xmlns="http://www.w3.org/2000/svg">
<path d="M25.6066 4.39336C22.7735 1.56029 19.0066 0 15 0C10.9934 0 7.22654 1.56029 4.39336 4.39336C1.56029 7.22654 0 10.9934 0 15C0 19.0066 1.56029 22.7735 4.39336 25.6066C7.22654 28.4397 10.9934 30 15 30C19.0066 30 22.7735 28.4397 25.6066 25.6066C28.4397 22.7735 30 19.0066 30 15C30 10.9934 28.4397 7.22654 25.6066 4.39336ZM15 28.2422C7.69822 28.2422 1.75781 22.3018 1.75781 15C1.75781 7.69822 7.69822 1.75781 15 1.75781C22.3018 1.75781 28.2422 7.69822 28.2422 15C28.2422 22.3018 22.3018 28.2422 15 28.2422Z" fill="#2F9AAA"/>
<path d="M15 4.6875C13.223 4.6875 11.7773 6.13318 11.7773 7.91016C11.7773 9.68713 13.223 11.1328 15 11.1328C16.777 11.1328 18.2227 9.68713 18.2227 7.91016C18.2227 6.13318 16.777 4.6875 15 4.6875ZM15 9.375C14.1923 9.375 13.5352 8.71787 13.5352 7.91016C13.5352 7.10244 14.1923 6.44531 15 6.44531C15.8077 6.44531 16.4648 7.10244 16.4648 7.91016C16.4648 8.71787 15.8077 9.375 15 9.375Z" fill="#2F9AAA"/>
<path d="M17.9297 23.4375V12.8906H10.8984V14.6484H12.0703V23.4375H10.8984V25.1953H19.1016V23.4375H17.9297ZM16.1719 23.4375H13.8281V14.6484H16.1719V23.4375Z" fill="#2F9AAA"/>
</svg>
