<svg width="30" height="30" viewBox="0 0 30 30" fill="none" xmlns="http://www.w3.org/2000/svg">
<path d="M27.5104 18.5742C27.9287 18.1072 28.1836 17.4908 28.1836 16.8164C28.1836 15.3627 27.0006 14.1797 25.5469 14.1797H20.4293C20.9361 12.6416 21.1523 10.6008 21.1523 9.72598V8.84766C21.1523 6.90937 19.575 5.33203 17.6367 5.33203H16.7578C16.3547 5.33203 16.0031 5.60625 15.9053 5.99766L15.4266 7.91309C14.7557 10.5955 12.6258 13.5551 10.4215 14.093C10.0354 13.1156 9.08203 12.4219 7.96875 12.4219H2.69531C2.21016 12.4219 1.81641 12.8156 1.81641 13.3008V29.1211C1.81641 29.6063 2.21016 30 2.69531 30H7.96875C9.01699 30 9.92402 29.3854 10.3488 28.4971L13.3688 29.5037C14.3561 29.833 15.385 30 16.4262 30H23.7891C25.2428 30 26.4258 28.817 26.4258 27.3633C26.4258 27.0205 26.3602 26.6924 26.2406 26.3918C27.3586 26.0865 28.1836 25.0617 28.1836 23.8477C28.1836 23.1732 27.9287 22.5568 27.5104 22.0898C27.9287 21.6229 28.1836 21.0064 28.1836 20.332C28.1836 19.6576 27.9287 19.0412 27.5104 18.5742ZM8.84766 27.3633C8.84766 27.8479 8.45332 28.2422 7.96875 28.2422H3.57422V14.1797H7.96875C8.45332 14.1797 8.84766 14.574 8.84766 15.0586V27.3633ZM23.7891 19.4531H25.5469C26.0314 19.4531 26.4258 19.8475 26.4258 20.332C26.4258 20.8166 26.0314 21.2109 25.5469 21.2109H23.7891C23.3039 21.2109 22.9102 21.6047 22.9102 22.0898C22.9102 22.575 23.3039 22.9688 23.7891 22.9688H25.5469C26.0314 22.9688 26.4258 23.3631 26.4258 23.8477C26.4258 24.3322 26.0314 24.7266 25.5469 24.7266H23.7891C23.3039 24.7266 22.9102 25.1203 22.9102 25.6055C22.9102 26.0906 23.3039 26.4844 23.7891 26.4844C24.2736 26.4844 24.668 26.8787 24.668 27.3633C24.668 27.8479 24.2736 28.2422 23.7891 28.2422H16.4262C15.5742 28.2422 14.7322 28.1057 13.9242 27.8361L10.6055 26.7299V15.8543C11.9842 15.5924 13.3336 14.7193 14.5518 13.2902C15.7412 11.8945 16.7057 10.0441 17.1316 8.33965L17.4439 7.08984H17.6367C18.6059 7.08984 19.3945 7.87852 19.3945 8.84766V9.72598C19.3945 10.9061 19.0254 13.1695 18.5531 14.1797H16.7578C16.2727 14.1797 15.8789 14.5734 15.8789 15.0586C15.8789 15.5437 16.2727 15.9375 16.7578 15.9375H25.5469C26.0314 15.9375 26.4258 16.3318 26.4258 16.8164C26.4258 17.301 26.0314 17.6953 25.5469 17.6953H23.7891C23.3039 17.6953 22.9102 18.0891 22.9102 18.5742C22.9102 19.0594 23.3039 19.4531 23.7891 19.4531Z" fill="#2F9AAA"/>
<path d="M6.21094 26.4844C6.69634 26.4844 7.08984 26.0909 7.08984 25.6055C7.08984 25.1201 6.69634 24.7266 6.21094 24.7266C5.72553 24.7266 5.33203 25.1201 5.33203 25.6055C5.33203 26.0909 5.72553 26.4844 6.21094 26.4844Z" fill="#2F9AAA"/>
<path d="M18.5156 0C18.0302 0 17.6367 0.393516 17.6367 0.878906V2.69531C17.6367 3.1807 18.0302 3.57422 18.5156 3.57422C19.001 3.57422 19.3945 3.1807 19.3945 2.69531V0.878906C19.3945 0.393516 19.001 0 18.5156 0Z" fill="#2F9AAA"/>
<path d="M14.7867 3.87587L13.5438 2.63292C13.2006 2.28968 12.6441 2.28968 12.3008 2.63292C11.9576 2.97616 11.9576 3.53263 12.3008 3.87587L13.5438 5.11882C13.8869 5.462 14.4435 5.46206 14.7867 5.11882C15.13 4.77558 15.13 4.21911 14.7867 3.87587Z" fill="#2F9AAA"/>
<path d="M24.7304 2.63292C24.3873 2.28968 23.8307 2.28968 23.4875 2.63292L22.2445 3.87581C21.9013 4.21905 21.9013 4.77552 22.2445 5.11876C22.5877 5.462 23.1442 5.46206 23.4875 5.11882L24.7304 3.87587C25.0737 3.53263 25.0737 2.97616 24.7304 2.63292Z" fill="#2F9AAA"/>
</svg>
