<svg width="58" height="58" viewBox="0 0 58 58" fill="none" xmlns="http://www.w3.org/2000/svg">
<g clip-path="url(#clip0)">
<path d="M55.7344 48.2579H55.5419L50.2215 19.8344C50.1526 19.4657 49.9055 19.155 49.5617 19.0049L43.6015 16.4002L41.4997 4.83587C41.4168 4.37946 41.0639 4.0198 40.6093 3.92804L35.8515 2.96775C35.2384 2.84394 34.6407 3.24076 34.5169 3.85407C34.3931 4.46737 34.7899 5.06482 35.4032 5.18863L39.4081 5.99689L41.4805 17.3994C41.4806 17.4002 41.4809 17.4011 41.481 17.4019L42.216 21.4457C42.3154 21.9929 42.7922 22.3762 43.3292 22.3762C43.3963 22.3762 43.4647 22.3702 43.5331 22.3578C44.1486 22.2458 44.557 21.6562 44.4451 21.0406L44.0899 19.0861L48.1051 20.8408L53.2371 48.2579H49.8438V45.9923C49.8438 44.743 48.8274 43.7267 47.5781 43.7267V35.7971C47.5781 35.1715 47.071 34.6643 46.4453 34.6643H38.5162V26.7343C38.5162 26.1086 38.009 25.6015 37.3834 25.6015H33.9848V24.4686C33.9848 23.843 33.4777 23.3358 32.852 23.3358H28.3208C27.6951 23.3358 27.188 23.843 27.188 24.4686V25.6015H24.9222V22.203C24.9222 21.5774 24.4151 21.0702 23.7894 21.0702H23.4019L25.9646 16.2102L31.3596 13.622C31.9237 13.3513 32.1617 12.6747 31.8909 12.1106C31.6203 11.5464 30.9435 11.3085 30.3795 11.5793L24.6471 14.3294C24.4279 14.4345 24.2484 14.6074 24.135 14.8224L20.8404 21.0703H19.258C18.6324 21.0703 18.1252 21.5775 18.1252 22.2031V23.1115L11.6879 25.2122C11.3591 25.3195 11.0973 25.5712 10.9771 25.8955L9.40699 30.1329H7.92969C7.30404 30.1329 6.79688 30.6401 6.79688 31.2657V39.1954C5.54761 39.1954 4.53125 40.2118 4.53125 41.4611V43.7267C3.28198 43.7267 2.26562 44.743 2.26562 45.9923V48.2579C1.01636 48.2579 0 49.2743 0 50.5236V53.922C0 54.5477 0.50716 55.0548 1.13281 55.0548H56.8672C57.4928 55.0548 58 54.5477 58 53.922V50.5236C58 49.2743 56.9836 48.2579 55.7344 48.2579ZM45.3125 43.7267H41.9141V41.4611C41.9141 40.2118 40.8977 39.1954 39.6484 39.1954H31.7191V36.9299H45.3125V43.7267ZM28.3208 27.8671C28.9464 27.8671 29.4536 27.3599 29.4536 26.7343V25.6015H31.7192V26.7343C31.7192 27.3599 32.2264 27.8671 32.852 27.8671H36.2506V34.6643H31.7192V31.2657C31.7192 30.6401 31.212 30.1329 30.5864 30.1329H26.0551C25.4295 30.1329 24.9223 30.6401 24.9223 31.2657V32.3984H22.6566V31.2657C22.6566 30.6401 22.1494 30.1329 21.5238 30.1329H20.391V23.9243C20.391 23.921 20.391 23.9179 20.391 23.9146V23.3358H22.6566V26.7343C22.6566 27.3599 23.1638 27.8671 23.7894 27.8671H28.3208ZM12.9113 27.1961L18.1252 25.4947V30.1329H16.9924C16.3668 30.1329 15.8596 30.6401 15.8596 31.2657V32.3984H13.5939V31.2657C13.5939 30.6401 13.0867 30.1329 12.4611 30.1329H11.8232L12.9113 27.1961ZM9.0625 32.3986H11.3281V33.5313C11.3281 34.1569 11.8353 34.6641 12.4609 34.6641H16.9923C17.618 34.6641 18.1251 34.1569 18.1251 33.5313V32.3986H20.3907V33.5313C20.3907 34.1569 20.8979 34.6641 21.5236 34.6641H26.0549C26.6806 34.6641 27.1877 34.1569 27.1877 33.5313V32.3986H29.4534V39.1954H9.0625V32.3986ZM6.79688 41.4611H7.92969L39.6484 41.4609V43.7266H6.79688V41.4611ZM4.53125 45.9923H5.66406L47.5781 45.9922V48.2578H4.53125V45.9923ZM55.7344 52.7891H2.26562V50.5234H3.39844H55.7344V52.7891Z" fill="#2F9AAA"/>
<path d="M33.2493 9.47223C33.8749 9.47223 34.3821 8.96507 34.3821 8.33942C34.3821 7.71376 33.8749 7.2066 33.2493 7.2066H33.2485C32.6228 7.2066 32.1161 7.71376 32.1161 8.33942C32.1161 8.96507 32.6236 9.47223 33.2493 9.47223Z" fill="#2F9AAA"/>
</g>
<defs>
<clipPath id="clip0">
<rect width="58" height="58" fill="white"/>
</clipPath>
</defs>
</svg>
