<svg width="54" height="54" viewBox="0 0 54 54" fill="none" xmlns="http://www.w3.org/2000/svg">
<path d="M10.9777 44.9071C11.4146 44.9071 11.7687 44.5529 11.7687 44.1161C11.7687 43.6792 11.4146 43.3251 10.9777 43.3251H5.93684C5.49998 43.3251 5.14582 43.6792 5.14582 44.1161C5.14582 44.5529 5.49998 44.9071 5.93684 44.9071H10.9777Z" fill="#2F9AAA"/>
<path d="M16.0402 44.9071C16.4771 44.9071 16.8312 44.5529 16.8312 44.1161C16.8312 43.6792 16.4771 43.3251 16.0402 43.3251H14.1634C13.7265 43.3251 13.3724 43.6792 13.3724 44.1161C13.3724 44.5529 13.7265 44.9071 14.1634 44.9071H16.0402Z" fill="#2F9AAA"/>
<path d="M24.3939 47.5533C23.957 47.5533 23.6029 47.9075 23.6029 48.3444C23.6029 48.7812 23.957 49.1354 24.3939 49.1354H26.5871C27.0239 49.1354 27.3781 48.7812 27.3781 48.3444C27.3781 47.9075 27.0239 47.5533 26.5871 47.5533H24.3939Z" fill="#2F9AAA"/>
<path d="M12.5286 48.3444C12.5286 48.7812 12.8828 49.1354 13.3196 49.1354H21.2082C21.645 49.1354 21.9992 48.7812 21.9992 48.3444C21.9992 47.9075 21.645 47.5533 21.2082 47.5533H13.3196C12.8828 47.5533 12.5286 47.9075 12.5286 48.3444Z" fill="#2F9AAA"/>
<path d="M40.8037 43.3251H33.6535C33.2166 43.3251 32.8625 43.6792 32.8625 44.1161C32.8625 44.5529 33.2166 44.9071 33.6535 44.9071H40.8037C41.2406 44.9071 41.5948 44.5529 41.5948 44.1161C41.5948 43.6792 41.2406 43.3251 40.8037 43.3251Z" fill="#2F9AAA"/>
<path d="M30.4678 44.9071C30.9047 44.9071 31.2588 44.5529 31.2588 44.1161C31.2588 43.6792 30.9047 43.3251 30.4678 43.3251H27.5363C27.0995 43.3251 26.7453 43.6792 26.7453 44.1161C26.7453 44.5529 27.0995 44.9071 27.5363 44.9071H30.4678Z" fill="#2F9AAA"/>
<path d="M35.3373 48.3444C35.3373 48.7812 35.6915 49.1354 36.1283 49.1354H47.1133C47.5502 49.1354 47.9043 48.7812 47.9043 48.3444C47.9043 47.9075 47.5502 47.5533 47.1133 47.5533H36.1283C35.6915 47.5533 35.3373 47.9075 35.3373 48.3444Z" fill="#2F9AAA"/>
<path d="M53.209 52.418H43.5679C43.131 52.418 42.7769 52.7721 42.7769 53.209C42.7769 53.6458 43.131 54 43.5679 54H53.209C53.6458 54 54 53.6458 54 53.209C54 52.7721 53.6458 52.418 53.209 52.418Z" fill="#2F9AAA"/>
<path d="M53.209 36.4541C51.7967 36.4541 51.0635 37.1637 50.4745 37.7338C49.9739 38.2182 49.6123 38.5682 48.8402 38.5682C48.068 38.5682 47.7064 38.2182 47.2058 37.7338C46.6168 37.1636 45.8835 36.4541 44.4713 36.4541C43.0591 36.4541 42.3261 37.1637 41.737 37.7338C41.2366 38.2182 40.875 38.5682 40.1031 38.5682C39.3312 38.5682 38.9695 38.2183 38.4691 37.7338C37.8801 37.1636 37.1469 36.4541 35.7348 36.4541C34.3227 36.4541 33.5896 37.1637 33.0005 37.7339C32.5001 38.2183 32.1385 38.5682 31.3666 38.5682C30.5947 38.5682 30.2331 38.2183 29.7327 37.7338C29.1438 37.1636 28.4106 36.4541 26.9985 36.4541C25.5865 36.4541 24.8535 37.1637 24.2646 37.7339C23.7642 38.2183 23.4027 38.5682 22.631 38.5682C21.8591 38.5682 21.4975 38.2183 20.9971 37.7339C20.4082 37.1637 19.6751 36.4541 18.263 36.4541C16.8508 36.4541 16.1177 37.1637 15.5287 37.7339C15.0282 38.2183 14.6667 38.5682 13.8948 38.5682C13.1228 38.5682 12.7613 38.2183 12.2608 37.7338C11.6719 37.1636 10.9388 36.4541 9.52668 36.4541C8.11456 36.4541 7.38155 37.1637 6.79261 37.7339C6.29216 38.2183 5.93061 38.5682 5.15879 38.5682C4.38697 38.5682 4.02543 38.2183 3.52508 37.7339C2.93614 37.1637 2.20314 36.4541 0.791016 36.4541C0.354164 36.4541 0 36.8083 0 37.2451C0 37.682 0.354164 38.0361 0.791016 38.0361C1.56284 38.0361 1.92438 38.3861 2.42473 38.8705C3.01366 39.4407 3.74667 40.1503 5.15879 40.1503C6.57091 40.1503 7.30392 39.4407 7.89286 38.8705C8.39331 38.3861 8.75486 38.0361 9.52668 38.0361C10.2985 38.0361 10.6601 38.3861 11.1606 38.8706C11.7495 39.4408 12.4826 40.1503 13.8948 40.1503C15.3069 40.1503 16.0399 39.4407 16.6289 38.8706C17.1294 38.3862 17.4909 38.0361 18.2629 38.0361C19.0348 38.0361 19.3963 38.3861 19.8968 38.8706C20.4857 39.4408 21.2188 40.1503 22.631 40.1503C24.043 40.1503 24.776 39.4407 25.3649 38.8705C25.8653 38.3861 26.2267 38.0361 26.9985 38.0361C27.7704 38.0361 28.132 38.3861 28.6324 38.8706C29.2214 39.4408 29.9545 40.1503 31.3666 40.1503C32.7787 40.1503 33.5117 39.4407 34.1008 38.8706C34.6012 38.3862 34.9628 38.0361 35.7347 38.0361C36.5066 38.0361 36.8683 38.3861 37.3687 38.8706C37.9578 39.4408 38.6909 40.1503 40.1031 40.1503C41.5153 40.1503 42.2484 39.4407 42.8374 38.8706C43.3378 38.3862 43.6994 38.0361 44.4713 38.0361C45.2435 38.0361 45.6051 38.3862 46.1057 38.8706C46.6947 39.4408 47.4279 40.1503 48.8402 40.1503C50.2524 40.1503 50.9856 39.4407 51.5746 38.8706C52.0752 38.3862 52.4368 38.0361 53.209 38.0361C53.6458 38.0361 54 37.682 54 37.2451C54 36.8083 53.6458 36.4541 53.209 36.4541Z" fill="#2F9AAA"/>
<path d="M39.8917 52.418H0.791016C0.354164 52.418 0 52.7721 0 53.209C0 53.6458 0.354164 54 0.791016 54H39.8917C40.3285 54 40.6827 53.6458 40.6827 53.209C40.6827 52.7721 40.3285 52.418 39.8917 52.418Z" fill="#2F9AAA"/>
<path d="M0.791016 34.8864H25.6886C26.1255 34.8864 26.4796 34.5322 26.4796 34.0954C26.4796 33.6585 26.1255 33.3044 25.6886 33.3044H18.1865L26.6889 20.8835L29.5519 23.7477C29.7002 23.8961 29.9014 23.9796 30.1113 23.9796C30.3212 23.9796 30.5224 23.8961 30.6707 23.7477L33.6348 20.7825L36.5989 23.7477C36.7472 23.8961 36.9484 23.9796 37.1583 23.9796C37.3682 23.9796 37.5694 23.8961 37.7177 23.7477L40.5675 20.8968L49.0608 33.3044H29.3203C28.8835 33.3044 28.5293 33.6585 28.5293 34.0954C28.5293 34.5322 28.8835 34.8864 29.3203 34.8864H53.209C53.6458 34.8864 54 34.5322 54 34.0954C54 33.6585 53.6458 33.3044 53.209 33.3044H50.9781L34.2765 8.90565C34.1291 8.69028 33.8848 8.5614 33.6238 8.5614C33.3627 8.5614 33.1185 8.69018 32.971 8.90565L23.8426 22.241L19.9809 16.5997C19.8335 16.3843 19.5892 16.2555 19.3282 16.2555C19.0672 16.2555 18.8229 16.3842 18.6755 16.5997L7.24064 33.3044H0.791016C0.354164 33.3044 0 33.6585 0 34.0954C0 34.5322 0.354164 34.8864 0.791016 34.8864ZM33.6238 10.7528L39.6585 19.5688L37.1585 22.0697L34.1944 19.1045C34.0462 18.9561 33.8449 18.8727 33.635 18.8727C33.4252 18.8727 33.2239 18.9561 33.0756 19.1045L30.1113 22.0696L27.598 19.5554L33.6238 10.7528ZM19.3282 18.4469L22.884 23.6413L16.2693 33.3044H9.15785L19.3282 18.4469Z" fill="#2F9AAA"/>
<path d="M11.4955 11.6259C13.3098 11.6259 14.786 10.1493 14.786 8.33444C14.786 6.51953 13.3098 5.04297 11.4955 5.04297C9.68108 5.04297 8.20494 6.51953 8.20494 8.33444C8.20494 10.1493 9.68108 11.6259 11.4955 11.6259ZM11.4955 6.625C12.4375 6.625 13.2039 7.39186 13.2039 8.33444C13.2039 9.27712 12.4375 10.0439 11.4955 10.0439C10.5534 10.0439 9.78697 9.27701 9.78697 8.33444C9.78697 7.39186 10.5534 6.625 11.4955 6.625Z" fill="#2F9AAA"/>
<path d="M10.7044 14.0004V15.8779C10.7044 16.3148 11.0586 16.6689 11.4955 16.6689C11.9323 16.6689 12.2865 16.3148 12.2865 15.8779V14.0004C12.2865 13.5635 11.9323 13.2094 11.4955 13.2094C11.0586 13.2094 10.7044 13.5635 10.7044 14.0004Z" fill="#2F9AAA"/>
<path d="M11.4955 3.45969C11.9323 3.45969 12.2865 3.10553 12.2865 2.66868V0.791016C12.2865 0.354164 11.9323 0 11.4955 0C11.0586 0 10.7044 0.354164 10.7044 0.791016V2.66868C10.7044 3.10553 11.0586 3.45969 11.4955 3.45969Z" fill="#2F9AAA"/>
<path d="M3.95508 9.12549H5.83189C6.26875 9.12549 6.62291 8.77132 6.62291 8.33447C6.62291 7.89762 6.26875 7.54346 5.83189 7.54346H3.95508C3.51823 7.54346 3.16406 7.89762 3.16406 8.33447C3.16406 8.77132 3.51823 9.12549 3.95508 9.12549Z" fill="#2F9AAA"/>
<path d="M16.368 8.33447C16.368 8.77132 16.7222 9.12549 17.159 9.12549H19.0358C19.4727 9.12549 19.8269 8.77132 19.8269 8.33447C19.8269 7.89762 19.4727 7.54346 19.0358 7.54346H17.159C16.7222 7.54346 16.368 7.89762 16.368 8.33447Z" fill="#2F9AAA"/>
<path d="M6.93131 11.7816L5.60419 13.1092C5.29538 13.4182 5.29538 13.919 5.6044 14.2278C5.75881 14.3822 5.9612 14.4594 6.1636 14.4594C6.36599 14.4594 6.5686 14.3821 6.723 14.2276L8.05012 12.9C8.35893 12.5911 8.35893 12.0902 8.04991 11.7814C7.74109 11.4726 7.24022 11.4726 6.93131 11.7816Z" fill="#2F9AAA"/>
<path d="M15.5002 5.11912C15.7027 5.11912 15.9052 5.04181 16.0596 4.8873L17.3867 3.55966C17.6956 3.25063 17.6955 2.74987 17.3865 2.44106C17.0775 2.13214 16.5766 2.13235 16.2679 2.44127L14.9408 3.76891C14.6319 4.07793 14.632 4.5787 14.941 4.88751C15.0954 5.04192 15.2978 5.11912 15.5002 5.11912Z" fill="#2F9AAA"/>
<path d="M6.9313 4.88732C7.0857 5.04183 7.2882 5.11914 7.4907 5.11914C7.6931 5.11914 7.89549 5.04194 8.0499 4.88753C8.35892 4.57872 8.35903 4.07785 8.05011 3.76893L6.723 2.44118C6.41418 2.13216 5.91331 2.13206 5.6044 2.44097C5.29537 2.74979 5.29527 3.25066 5.60418 3.55957L6.9313 4.88732Z" fill="#2F9AAA"/>
<path d="M14.941 11.7814C14.632 12.0902 14.6319 12.5911 14.9408 12.9L16.2679 14.2277C16.4223 14.3822 16.6248 14.4595 16.8273 14.4595C17.0297 14.4595 17.2321 14.3823 17.3865 14.2279C17.6955 13.9191 17.6956 13.4182 17.3867 13.1093L16.0596 11.7816C15.7508 11.4726 15.2499 11.4725 14.941 11.7814Z" fill="#2F9AAA"/>
</svg>
