<svg width="35" height="35" viewBox="0 0 35 35" fill="none" xmlns="http://www.w3.org/2000/svg">
<path d="M19.5417 9.33338C20.0249 9.33338 20.4167 8.94162 20.4167 8.45837C20.4167 7.97513 20.0249 7.58337 19.5417 7.58337C19.0584 7.58337 18.6667 7.97513 18.6667 8.45837C18.6667 8.94162 19.0584 9.33338 19.5417 9.33338Z" fill="#2F9AAA"/>
<path d="M17.5 26.25C17.8222 26.25 18.0834 25.9889 18.0834 25.6667C18.0834 25.3445 17.8222 25.0834 17.5 25.0834C17.1779 25.0834 16.9167 25.3445 16.9167 25.6667C16.9167 25.9889 17.1779 26.25 17.5 26.25Z" fill="#2F9AAA"/>
<path d="M17.5 29.1667C17.8222 29.1667 18.0834 28.9055 18.0834 28.5833C18.0834 28.2612 17.8222 28 17.5 28C17.1779 28 16.9167 28.2612 16.9167 28.5833C16.9167 28.9055 17.1779 29.1667 17.5 29.1667Z" fill="#2F9AAA"/>
<path d="M17.5 32.0833C17.8222 32.0833 18.0834 31.8221 18.0834 31.5C18.0834 31.1778 17.8222 30.9166 17.5 30.9166C17.1779 30.9166 16.9167 31.1778 16.9167 31.5C16.9167 31.8221 17.1779 32.0833 17.5 32.0833Z" fill="#2F9AAA"/>
<path d="M15.4583 9.33338C15.9416 9.33338 16.3333 8.94162 16.3333 8.45837C16.3333 7.97513 15.9416 7.58337 15.4583 7.58337C14.9751 7.58337 14.5833 7.97513 14.5833 8.45837C14.5833 8.94162 14.9751 9.33338 15.4583 9.33338Z" fill="#2F9AAA"/>
<path d="M22.1323 18.1113C22.9085 17.0987 23.3305 15.8592 23.3333 14.5833V11.6667H23.9167C24.8812 11.6619 25.6619 10.8812 25.6667 9.91667C25.6667 8.95016 24.8832 8.16667 23.9167 8.16667H23.3333V5.83333C23.3288 2.61355 20.7198 0.00452083 17.5 0C14.2798 0.00357292 11.6702 2.61311 11.6667 5.83333V8.16667H11.0833C10.1168 8.16667 9.33333 8.95016 9.33333 9.91667C9.33815 10.8812 10.1188 11.6619 11.0833 11.6667H11.6667V14.5833C11.6691 15.8592 12.0909 17.0988 12.8672 18.1113C9.55143 18.3988 7.00481 21.1719 7 24.5V34.4167C7 34.7388 7.26119 35 7.58333 35H27.4167C27.7388 35 28 34.7388 28 34.4167V24.5C27.9952 21.1716 25.4482 18.3986 22.1323 18.1113ZM23.3333 9.33333H23.9167C24.2388 9.33333 24.5 9.59452 24.5 9.91667C24.5003 10.0741 24.4355 10.2246 24.3209 10.3326C24.2146 10.4412 24.0686 10.5017 23.9167 10.5H23.3333V9.33333ZM11.6667 10.5H11.0833C10.9259 10.5005 10.7753 10.4357 10.6674 10.3209C10.5591 10.2145 10.4986 10.0686 10.5 9.91667C10.5 9.59452 10.7612 9.33333 11.0833 9.33333H11.6667V10.5ZM12.8333 5.83333C12.8362 3.25719 14.9239 1.16958 17.5 1.16667C20.0756 1.17082 22.1625 3.2577 22.1667 5.83333V10.5H12.8333V5.83333ZM12.8333 14.5833V11.6667H22.1667V14.5833C22.1707 15.6494 21.8036 16.6837 21.1283 17.5087C20.9177 17.772 20.679 18.0116 20.4167 18.2233V16.3333H19.25V18.9C18.8763 19.0534 18.4841 19.157 18.0833 19.208V16.3333H16.9167V19.2086C16.516 19.1574 16.1237 19.0539 15.75 18.9006V16.3339H14.5833V18.2233C14.3193 18.0117 14.0798 17.7712 13.8693 17.5064C13.1952 16.6818 12.829 15.6484 12.8333 14.5833ZM16.0271 22.3364L14 23.4943V19.2383C14.1864 19.3786 14.3812 19.5074 14.5833 19.6239V19.8333C14.5865 20.8647 15.1359 21.8172 16.0271 22.3364ZM15.7821 20.1495C16.3379 20.3248 16.9172 20.4148 17.5 20.4167C18.0833 20.4149 18.6628 20.3249 19.2191 20.1495C19.0471 21.0986 18.1382 21.7285 17.1891 21.5565C16.4727 21.4266 15.9119 20.866 15.7821 20.1495ZM19.5662 21.8937C20.1107 21.3462 20.4164 20.6055 20.4167 19.8333V19.6239C20.6188 19.5076 20.8136 19.3791 21 19.2389V23.4972L18.9735 22.3399C19.1888 22.2162 19.3879 22.0664 19.5662 21.8937ZM26.8333 33.8333H25.0833V23.9167H23.9167V33.8333H11.0833V23.9167H9.91667V33.8333H8.16667V24.5C8.1706 21.8282 10.1784 19.5845 12.8333 19.285V24.5C12.8327 24.8221 13.0934 25.0838 13.4155 25.0845C13.5183 25.0847 13.6193 25.0577 13.7083 25.0063L17.5 22.8381L21.2917 25.0063C21.5706 25.1674 21.9274 25.0718 22.0885 24.7928C22.1399 24.7038 22.1669 24.6028 22.1667 24.5V19.285C24.8219 19.5845 26.8297 21.8286 26.8333 24.5006V33.8333Z" fill="#2F9AAA"/>
<path d="M22.75 26.25H19.8333V27.4167H22.75V26.25Z" fill="#2F9AAA"/>
<path d="M19.8333 2.91663H15.1667V4.08329H19.8333V2.91663Z" fill="#2F9AAA"/>
<path d="M19.8333 4.66663H15.1667V5.83329H19.8333V4.66663Z" fill="#2F9AAA"/>
<path d="M18.8399 13.5643C18.485 13.9213 18.0017 14.1213 17.4982 14.1196C16.9982 14.1206 16.5187 13.921 16.1671 13.5654L15.3399 14.3879C15.91 14.9644 16.6875 15.288 17.4982 15.2863H17.5C18.3124 15.2883 19.092 14.9653 19.6647 14.3891L18.8399 13.5643Z" fill="#2F9AAA"/>
</svg>
