<svg width="35" height="35" viewBox="0 0 35 35" fill="none" xmlns="http://www.w3.org/2000/svg">
<path d="M7.10938 10.9375H8.20312V13.125H7.10938V10.9375Z" fill="#2F9AAA"/>
<path d="M2.62752 13.2453L3.40092 12.4719L4.94771 14.0187L4.17431 14.7921L2.62752 13.2453Z" fill="#2F9AAA"/>
<path d="M0.546875 16.9531H3.28125V18.0469H0.546875V16.9531Z" fill="#2F9AAA"/>
<path d="M2.62663 21.7516L4.17343 20.2048L4.94683 20.9782L3.40003 22.525L2.62663 21.7516Z" fill="#2F9AAA"/>
<path d="M7.10938 21.875H8.20312V24.0625H7.10938V21.875Z" fill="#2F9AAA"/>
<path d="M34.4531 16.9531H33.2872L33.8144 16.1629L32.9044 15.5559L31.973 16.9531H30.625V15.6051L32.0223 14.6738L31.4152 13.7637L30.625 14.2909V13.125H29.5312V14.2909L28.741 13.7637L28.134 14.6738L29.5312 15.6051V16.9531H28.1832L27.2519 15.5559L26.3419 16.1629L26.8691 16.9531H25.7031V18.0469H26.8691L26.3419 18.8371L27.2519 19.4441L28.1832 18.0469H29.5312V19.3949L28.134 20.3262L28.741 21.2362L29.5312 20.7091V21.875H30.625V20.7091L31.4152 21.2362L32.0223 20.3262L30.625 19.3949V18.0469H31.973L32.9044 19.4441L33.8144 18.8371L33.2872 18.0469H34.4531V16.9531Z" fill="#2F9AAA"/>
<path d="M24.6094 17.5C24.6094 13.58 21.42 10.3906 17.5 10.3906C14.1034 10.3906 11.2596 12.7859 10.5596 15.9753C10.0095 14.9324 8.91516 14.2188 7.65625 14.2188C5.84664 14.2188 4.375 15.6904 4.375 17.5C4.375 19.3096 5.84664 20.7812 7.65625 20.7812C8.91516 20.7812 10.0095 20.0676 10.5596 19.0247C11.2596 22.2141 14.1034 24.6094 17.5 24.6094C21.42 24.6094 24.6094 21.42 24.6094 17.5ZM7.65625 19.6875C6.44984 19.6875 5.46875 18.7064 5.46875 17.5C5.46875 16.2936 6.44984 15.3125 7.65625 15.3125C8.86266 15.3125 9.84375 16.2936 9.84375 17.5C9.84375 18.7064 8.86266 19.6875 7.65625 19.6875ZM15.8545 21.3281H19.1455C18.7141 22.6805 18.0873 23.5156 17.5 23.5156C16.9127 23.5156 16.2859 22.6805 15.8545 21.3281ZM11.5123 18.0469H14.2308C14.2559 18.8229 14.3314 19.5579 14.4545 20.2344H12.1483C11.8059 19.5666 11.5828 18.8289 11.5123 18.0469ZM17.5 11.4844C18.0879 11.4844 18.7141 12.3195 19.1455 13.6719H15.8545C16.2859 12.3195 16.9121 11.4844 17.5 11.4844ZM19.4245 14.7656C19.5579 15.4268 19.6476 16.1618 19.676 16.9531H15.324C15.3524 16.1618 15.4427 15.4268 15.5755 14.7656H19.4245ZM23.4877 16.9531H20.7692C20.7441 16.1771 20.6686 15.4421 20.5455 14.7656H22.8517C23.1941 15.4334 23.4172 16.1711 23.4877 16.9531ZM23.4877 18.0469C23.4166 18.8289 23.1941 19.5666 22.8512 20.2344H20.545C20.668 19.5579 20.7441 18.8229 20.7687 18.0469H23.4877ZM14.2308 16.9531H11.5123C11.5834 16.1711 11.8059 15.4334 12.1488 14.7656H14.455C14.3314 15.4421 14.2554 16.1771 14.2308 16.9531ZM15.324 18.0469H19.676C19.6476 18.8382 19.5573 19.5732 19.4245 20.2344H15.5755C15.4421 19.5732 15.3524 18.8382 15.324 18.0469ZM19.5311 23.1552C19.8335 22.6527 20.0905 22.0363 20.2918 21.3281H22.137C21.455 22.1523 20.5559 22.7861 19.5311 23.1552ZM22.137 13.6719H20.2918C20.0905 12.9637 19.8335 12.3473 19.5311 11.8448C20.5559 12.2139 21.455 12.8477 22.137 13.6719ZM15.4689 11.8448C15.1665 12.3473 14.9095 12.9637 14.7082 13.6719H12.863C13.545 12.8477 14.4441 12.2139 15.4689 11.8448ZM12.863 21.3281H14.7082C14.9095 22.0363 15.1665 22.6527 15.4689 23.1552C14.4441 22.7861 13.545 22.1523 12.863 21.3281Z" fill="#2F9AAA"/>
<path d="M13.6719 8.20312H21.3281C22.8359 8.20312 24.0625 6.97648 24.0625 5.46875C24.0625 3.84344 22.6264 2.51781 20.9727 2.76062C20.3525 1.41805 19.0143 0.546875 17.5 0.546875C15.9857 0.546875 14.6475 1.41805 14.0273 2.76062C12.3741 2.51617 10.9375 3.84344 10.9375 5.46875C10.9375 6.97648 12.1641 8.20312 13.6719 8.20312ZM13.6719 3.82812C13.8327 3.82812 14.0022 3.85875 14.1909 3.92219L14.7219 4.10156L14.8876 3.56617C15.2436 2.41445 16.2936 1.64062 17.5 1.64062C18.7064 1.64062 19.7564 2.41445 20.1124 3.56562L20.2781 4.10156L20.8091 3.92273C20.9978 3.85875 21.1673 3.82812 21.3281 3.82812C22.2327 3.82812 22.9688 4.56422 22.9688 5.46875C22.9688 6.37328 22.2327 7.10938 21.3281 7.10938H13.6719C12.7673 7.10938 12.0312 6.37328 12.0312 5.46875C12.0312 4.56422 12.7673 3.82812 13.6719 3.82812Z" fill="#2F9AAA"/>
<path d="M18.0469 30.8197V30.625C18.0469 27.9114 15.8386 25.7031 13.125 25.7031H12.5781V29.5312C12.5781 32.06 14.496 34.1474 16.9531 34.4209V34.4531H17.5H18.0469H21.875C24.5886 34.4531 26.7969 32.2448 26.7969 29.5312V28.9844H21.875C20.3295 28.9844 18.9498 29.7019 18.0469 30.8197ZM13.6719 29.5312V26.8357C15.5247 27.102 16.9531 28.6995 16.9531 30.625V33.3205C15.1003 33.0542 13.6719 31.4568 13.6719 29.5312ZM21.875 33.3594H18.0857C18.352 31.5066 19.9495 30.0781 21.875 30.0781H25.6643C25.398 31.9309 23.8005 33.3594 21.875 33.3594Z" fill="#2F9AAA"/>
<path d="M10.1402 5.33146L9.57305 4.3963C6.87094 6.03474 4.76766 8.42458 3.49126 11.3072L4.49149 11.7501C5.67657 9.07263 7.63 6.85341 10.1402 5.33146Z" fill="#2F9AAA"/>
<path d="M4.49149 23.2498L3.49126 23.6928C5.09524 27.3153 8.12165 30.2394 11.7956 31.7149L12.203 30.7004C8.79157 29.3294 5.98118 26.6142 4.49149 23.2498Z" fill="#2F9AAA"/>
<path d="M26.979 28.0979L27.7085 28.9127C29.4673 27.3383 30.8569 25.3531 31.7275 23.1711L30.7119 22.7659C29.9037 24.792 28.613 26.6356 26.979 28.0979Z" fill="#2F9AAA"/>
<path d="M30.712 12.2341L31.7275 11.8289C30.5129 8.78444 28.3008 6.16054 25.4986 4.44061L24.9266 5.37249C27.5297 6.96991 29.5837 9.40679 30.712 12.2341Z" fill="#2F9AAA"/>
</svg>
